<?xml version="1.0" encoding="UTF-8"?>
<svg id="svg2" xmlns="http://www.w3.org/2000/svg" xmlns:svg="http://www.w3.org/2000/svg" xmlns:sodipodi="http://sodipodi.sourceforge.net/DTD/sodipodi-0.dtd" xmlns:rdf="http://www.w3.org/1999/02/22-rdf-syntax-ns#" xmlns:inkscape="http://www.inkscape.org/namespaces/inkscape" xmlns:dc="http://purl.org/dc/elements/1.1/" xmlns:cc="http://creativecommons.org/ns#" version="1.1" viewBox="0 0 1498.7 1187.6">
  <!-- Generator: Adobe Illustrator 29.5.1, SVG Export Plug-In . SVG Version: 2.1.0 Build 141)  -->
  <defs>
    <style>
      .st0 {
        fill: #52c2e7;
      }

      .st1 {
        fill: #fff;
      }

      .st2 {
        fill: #ea1d22;
      }
    </style>
  </defs>
  <path id="path27137" class="st1" d="M747.6,736.4v-135.1l-4.6-.3c-18-1-40.5-6.1-55.7-12.5-1.2-.5-2.8-1.2-3.4-1.5l-1.2-.5.8.9c.6.7.7.9.3,1.1-1.6.6-117.1,28.4-117.5,28.3-.3,0,14.3-14.4,32.4-31.8l32.8-31.7-2.6-2.4c-5-4.6-12.2-13-16.6-19.3-4.7-6.7-11.4-18.7-10.6-18.9.5-.2,26.1-1,26.2-.8.8,1.3,4.8,7.2,6.9,10.1,18.6,25.1,44.2,41.5,80.2,51.2,15.7,4.3,39.3,4.4,59.7.3,31.2-6.2,60.9-22.8,78-43.4,1.2-1.4,2-2.1,2.5-2.1s4.9.7,10,1.5c10.9,1.8,24.2,3.9,34.6,5.3,4.2.6,7.6,1.1,7.7,1.2,0,0,2.3,9,4.9,19.9,2.6,10.8,7,28.9,9.8,40.2,2.7,11.2,4.9,20.5,4.8,20.6,0,0-14-14.2-30.9-31.7l-30.7-31.8-4.2,4.3c-6.6,6.7-13.3,12.2-20.1,16.7-5.4,3.6-14.4,7.8-27.5,13.1-5.5,2.2-6.5,2.7-5.4,2.7h1.3l-.2,1.3c-.4,2.4-60.8,276.6-61.3,278.3-.4,1.5-.5-19.2-.5-133.4h0v.2ZM744.9,567.1c-2.7-.6-5-3.2-5.4-6.1-.5-3.4,2.1-7.3,5.5-8,4.6-1,8.8,2.3,8.8,6.9s-.4,3.3-2,5c-.9,1-1.8,1.5-3,1.9-1.9.6-2.3.6-3.9.2h0ZM833.9,531.7c-1.7-.5-3.4-1.8-4.2-3.3-.9-1.5-1.6-5-1-5s14.1,2.5,14.2,2.6c.3.3-.5,2.1-1.7,3.4-1.9,2.2-4.7,3.1-7.3,2.3h0ZM656.2,530.3c-3.6-1.7-5.3-6-3.6-9.5,1.7-3.7,5.9-5.3,9.5-3.6,5.8,2.6,5.6,10.8-.3,13.3-1.7.7-3.9.7-5.6,0h0ZM400,454c-40.1-8.8-76.3-16.6-77-16.9-1-.3,8.4-.5,38.2-.3l43,.3,1.7,1.2c.9.6,3.1,3.5,5.8,6.2,2.6,2.6,5.4,5.3,6.2,5.9,4.4,3.6,10.9,5.2,24.7,6.1,4.8.3,7.1.3,10.7,0,6.5-.6,7.3-.3,9.9,4.5,1.4,2.6,5.3,6.3,8.4,8,1.3.7,2.1,1.2,1.8,1.2s-33.3-7.3-73.5-16.1h0ZM903.2,464.1c3.3,0-8.1-3-11-4.1l-5.3-2,.7-4.2c.9-5.9,1.3-23.3.4-29.3-.6-3.9-.6-4.1,0-4.6,3.3-2.5,21.2-14.2,21.4-14,.3.4,2.3,10.5,2.9,15.4,1.8,13.4,1.2,28.8-1.1,39.8-1,5-1.1,5.1-1.7,5.1s-3.1-1-6.2-2.2h-.1ZM869.4,443.1c-.8-.4-2-1.5-2.5-2.3-.9-1.3-1-1.8-1-3.7v-2.3l3.9-2.7,3.9-2.7,1.4.4c2.6.8,5.1,4.1,5.1,6.9s-.8,3.4-1.8,4.7c-2.1,2.5-5.9,3.3-8.9,1.8h-.1ZM1164.2,436.5c-.8-2.3-1.2-3.5-1.1-3.6.2-.2,16.1,3.3,16.7,3.7.3.2-2.8.3-7.5.3s-8,0-8.2-.4h0ZM1104.5,435.8c3.2-1,13.8-3.5,13.8-3.2s-.4,1.1-.9,2l-.9,1.7h-6.8c-6.4,0-6.7,0-5.2-.6h0ZM606.1,378.1c-6.2-1.3-11.4-2.4-11.5-2.5,0,0,1.5-4.3,2.4-6.2,1.8-3.7,1.8-3.9-.5-4.2l-1.3-.2-13.4-55c-7.3-30.3-13.3-55.2-13.2-55.5,0-.3,11.6,11.4,29.4,29.8,16.1,16.7,30.2,31.3,31.4,32.4l2.1,2,2.5-2.2c14.5-12.8,34.8-25,54.3-32.5l2.6-1h-2.7c-2.4-.2-2.7-.3-2.7-.9S747.5,3.7,748,2.2c.2-.7-.5,43-.6,133.8l-.2,134.8.8.2c.4,0,5.7.7,11.6,1.4,14.2,1.6,17.3,2.1,22.2,3.1,10.5,2.2,21.5,6.1,33.4,11.6l3.4,1.6-2.9-2.9c-2-2-2.7-3-2.4-3.1,1.8-.6,117.8-27.5,118.2-27.4.3,0-.7,1.3-3,3.4-2.8,2.7-3.8,3.4-5.1,3.7-2.5.7-6.1,2.7-7.5,4.1-1.1,1.3-2.3,4.1-2.3,5.7s-7.2,6.2-24.2,22.6c-13,12.6-24.2,23.3-24.9,23.9l-1.3,1.1,4.7,4.7c4.1,4.2,7.2,7.8,7,8-.4.4-21.1,10.5-21.3,10.5s-.9-.1-2.3-1.8c-3-3.6-10.7-11.8-14.8-15.3-28.5-23.7-69.4-34.8-108.1-29.4-19.6,2.8-38.5,10.1-56.8,22-22.6,14.7-40.8,34.3-51,54.8-1.2,2.4-3.2,7.1-3.3,7,0,0-5.3-1.1-11.5-2.4l.3.2ZM657.7,355.1c-3.4-1.1-5.6-5-4.7-8.6,1.2-4.9,7-7.1,11.1-4.3,5.6,3.9,3.1,12.7-3.6,13.1-1,0-2.2,0-2.8-.2h0ZM830.6,353.4c-3.1-4.7.4-11.1,6.2-11.1s6.2,2.4,6.9,5.2c.2.9,0,1-6,4l-6.2,3.1-.9-1.3h0ZM743.6,319.4c-5.1-2.4-5.5-9.5-.8-12.7,1.2-.8,1.8-1,3.7-1s2.5.2,4,1c4.3,2.7,4.5,9,.2,12-1.9,1.3-5,1.6-7.1.6h0Z"/>
  <path id="path27139" class="st0" d="M746.5,873.5c-.3-.3-.8-.9-.9-1.4-.3-1-20.8-94.4-38.1-174-5.5-25.1-10-46-10.1-46.4-.2-.8-.6-1-5.1-2-7.7-1.7-20.8-6.3-31.6-10.9-16.3-6.9-30.9-15.4-45.2-26.2l-5.1-3.8-19.3,4.6c-10.6,2.5-20,4.8-20.9,5.1s-2,.4-2.5.3c-.8-.2-3-2.2-3-2.8s2.5-9.5,5.7-20.8c3.1-11.3,5.7-20.7,5.7-20.9s-1.1-1.7-2.5-3.4c-4.8-6.1-12-16.7-16.5-24.6-4.8-8.3-13.5-26.5-14.4-30.2l-.2-.9h3.4c1.8.2,3.5.3,3.6.5,0,0,1.1,2.3,2.2,4.9,4.7,11.2,12.5,25.5,19.7,36,3.6,5.3,6.9,9.7,7.1,9.5,0,0,3-10.7,6.6-23.6,3.6-12.9,7-25,7.5-26.8.9-3.1,1-3.3,1.9-3.5,1-.2,3.3-.3,3.3,0,0,0-6.4,23.1-14.2,51.2-7.8,28.1-14.1,51.2-14.1,51.2,0,0,107.7-26,107.9-26.2,0,0-1.3-.8-3.2-1.7-4.2-2-11.7-6.2-16.7-9.4-20.6-13.4-38.4-31.6-51.4-52.5-2.4-3.8-7.4-12.8-7.2-12.9,0,0,1.3-.2,2.7-.3l2.6-.2,1.3,2.5c12.6,24.1,33.8,46.5,58.2,61.3,26.9,16.4,56.8,24.5,87.5,23.7,8.2-.2,12-.5,18.7-1.4,35.8-5,68.5-21.4,93.4-46.9,5.2-5.3,9.6-10.4,13.4-15.4,1.5-2,2.8-3.7,2.9-3.9.3-.3,5.5.4,5.5.8s-1.7,2.5-3.8,5.2c-12.2,16.2-27.5,30.3-44.6,41.1-3.8,2.4-11.1,6.6-13.2,7.5l-1,.5,1,.3c7.8,2.3,100.9,27.9,101,27.7,0,0-4.2-18-9.5-39.8s-9.6-39.6-9.5-39.7c0,0,1,0,2.1,0,1.6.2,2,.4,2.2,1,0,.4,1.9,7.4,3.8,15.6,2,8.2,3.7,14.8,3.8,14.8.5,0,8.3-11.2,12-17.2,1.2-2,2.2-3.7,2.3-3.8,0,0,1.2,1,2.5,2.3l2.4,2.5-2.3,3.7c-3.1,5-8.4,12.5-11.9,17.1-1.6,2.1-3,4-3,4.2,0,.5,8.8,37.3,9.3,38.7.2.6.3,1.3.3,1.7,0,.9-1,2.5-2.1,3.1-1,.6-1.3.5-20.9-4.9l-20-5.5-4.3,3.4c-22.7,17.6-50.9,31.5-77.9,38.3-2.4.6-4.4,1.3-4.5,1.6-.2.3-3.8,16.8-8.2,36.7s-14.9,67.6-23.4,106.1c-8.5,38.4-15.7,71-16,72.4-.9,4.4-1.2,5.5-2.2,6.5-1,1.1-1.9,1.3-2.8.5h0l-.2-.2ZM777.4,727.3c16.1-73.2,29.3-133.4,29.4-133.8.2-.5-.2-.5-2.7.5-10.1,3.7-23.2,6.9-34.9,8.4-14.5,1.8-31,1.7-45.1-.3-10.5-1.5-24-4.8-32.2-7.9-1.3-.5-2.4-.8-2.4-.8,0,0,11.2,51.9,25,115.2s27,123.5,29.2,133.8,4.2,18.5,4.3,18.4,13.4-60.2,29.5-133.4h0ZM695.5,643.5c0-1.1-11.2-52.3-11.5-52.4-.2,0-3.5.6-7.2,1.6-7.6,1.9-54.9,13.5-56.7,13.8l-1.1.2,1.6,1.3c2.8,2.2,10.7,7.5,16.1,10.8,16.5,10.1,33.4,17.6,52.3,23.2,5.9,1.7,6.5,1.9,6.5,1.5h0ZM803.3,642.8c18.4-4.7,40.5-14.3,57.7-25.1,6.6-4.2,17-11.5,16.6-11.8,0,0-7.9-2.3-17.3-4.9-9.4-2.6-23.1-6.4-30.3-8.4l-13.2-3.7-2.3,1c-1.3.5-2.4,1.2-2.6,1.4-.3.5-11.2,50.8-11.2,51.6s0,.6,2.5,0h0ZM735.9,579.5c-34-3.2-63.2-16.4-87.3-39.5-7.9-7.5-16.8-18.5-21.9-26.9l-1.3-2.1,2.1-.2c1.2-.1,2.2-.1,2.4,0,0,0,1.2,1.6,2.4,3.3,9.4,14.1,22.4,27.2,36.7,37,33,22.8,73.5,30.1,112.7,20.3,20.9-5.2,40.6-15.5,57-29.7,3.3-2.9,11.5-11.1,13.9-13.8.7-.9,1.8-1.2,3.1-1.1,1.1,0,2.2.3,2.4.5.9.6-10.8,12.8-18.1,19-21.9,18.3-45.9,28.9-74.2,32.6-6,.8-24,1.2-29.8.6h-.1ZM737.3,542.8c-20.4-2.2-38.5-9.4-54.2-21.4-4-3-11-9.4-12.8-11.5l-1.3-1.5,1.8-.2,1.8-.2,4.5,4.1c18,16.5,38.7,25.7,62.3,27.7,6.2.5,16.6.2,22.8-.7,17.1-2.5,34.1-9.5,46.8-19.1,1.4-1.1,1.7-1.1,3.3-.9.9,0,1.8.3,2,.5s-1.5,1.6-5.9,4.9c-2.6,1.9-8.9,5.6-13.1,7.7-11,5.5-20,8.3-33.2,10.3-4,.6-20.5.9-24.7.4h0ZM978.7,488.3c-2.1-.3-4.3-.7-4.8-.8-.9-.2-.9-.3,1-1,4.2-1.7,11.2-6,13.4-8.3,2.4-2.5,2.4-4.6,0-8.2-3-4.6-32.9-32.1-34.8-32.1s-2.6,2.5-5.6,7.6c-3.6,6-4.9,6.6-11,5.6-3.9-.6-5.9-.5-6.8.2-.4.4-.4.5,0,1.3,1.5,2.4,7.4,9.2,13.7,16.1l3.1,3.4-2.4,1.8-2.4,1.8-7.1-9.5c-3.9-5.2-7.9-10.6-8.9-12-2.3-3.3-3.1-3.7-7.4-3.4-1.8.1-3.7.4-4.2.6-.8.3-.9.5-.9,2s-1.5,12.7-1.8,13c0,.1-1.2-.2-2.4-.6-1.7-.7-2.1-1-2.1-1.5s.4-3.1.8-6c2-15.6,1.8-31.4-.7-46.6-.5-3.1-.6-4.4-.3-4.7.4-.5,3.5-2.5,3.9-2.5s.3.6.4,1.4c0,.8.4,1.5.5,1.6.5.3,3.7-.6,5.8-1.6,2.5-1.2,3.8-2.1,6.4-4.5,2.6-2.4,4.5-3.5,7-4.2,2.2-.6,3.3-1.3,4.9-3.3,1.5-1.9,4.1-4,7.5-6,7.2-4.3,13.2-9,18.8-14.8,2-2.1,4-4.4,4.5-5.2.7-1.2,1.8-2.1,5.8-4.8,2.7-1.8,5.2-3.4,5.4-3.6.3-.2.3.1,0,1-.6,1.6-.7,6.4,0,7.9.7,1.6,2.4,2.8,5.9,3.9,5.3,1.8,53.6,14.5,57.9,15.3,1.1.2,1.5,0,3.3-1.2,2.5-1.7,9.7-9,10.5-10.7.8-1.6.7-3.1,0-4.7-1.5-2.9-6.3-5-16.7-7.2-10.6-2.2-36.6-6.2-45.2-6.9-2.5-.2-6.1-.3-8-.2l-3.5.2,3.7-2.6c2-1.4,3.9-2.8,4.2-3.1.5-.5.9-.4,3.4.4,7.6,2.3,27.2,5.6,59.4,10.2,16,2.3,18.4,2.2,23.7-.6,4-2.1,5.8-3.7,7.1-6.4,2.9-5.9.7-11.2-5.1-12.6-3.9-1-21.7-3-36.8-4.1-8.6-.7-33-2.2-34.6-2.2h-1.1l1.6-2.4c.9-1.3,1.8-2.4,2-2.4s2.6.3,5.2.7c13.9,2,38.5,4.1,62.6,5.3,21.9,1.1,24.7.6,30.9-5.2,3.6-3.4,4.6-5.5,4.6-9.4s0-3.2-1.1-5.2c-1.4-2.8-4.6-5.9-7.8-7.4-4.8-2.3-11.8-3-38.6-3.7l-9.4-.2-3.4-1.9c-1.9-1-3.5-2-3.6-2.1-.2-.2,2.5-.1,27.8.8,7.8.3,37.6,1.3,66.1,2.2,28.5.9,56,1.9,61.1,2.1,65.6,2.5,102.2,3.9,117.9,4.3,51.4,1.4,78.3,0,97.9-5.1,17.3-4.5,33-13.2,44.5-24.5,5.1-5.1,7.8-9.5,6.6-10.7-.6-.6-6.7-.9-27.3-1.3-41.4-.8-108.2-1-280.7-1h-178.8l-2.2,1.1-2.2,1.1-3.7-1.2c-2-.7-3.7-1.3-3.7-1.4s1.5-.9,3.3-1.8l3.3-1.6,155.1-.4c194.4-.5,324.2-.5,340.5,0,16.7.5,22.7,1,24.1,2.1,1.1.9-1.4,4.5-9.1,12.8-8,8.6-22.2,20.8-30.3,26-10.8,6.9-31.9,13.2-50.6,14.9-2.3.2-7.3.5-11.2.7-10.2.4-12,1.2-18.7,7.3-9.3,8.5-18.4,14.7-31.2,21-14,6.9-18.2,8-38.6,9.6-12.6,1-17.6,1.6-20.9,2.6-3.2,1-4.3,1.6-8.1,4.7-6.2,5-15,10-24.3,13.9-10.2,4.3-16.4,6.1-26.1,7.5-5.2.7-10.3,2.8-14.5,6.1-.9.7-3.7,3.1-6.3,5.2-15.6,13.4-25.2,17-47.5,17.7l-6.5.2-2.1-1.5c-2.9-2-4.7-2.6-8.4-2.6s-9.3,1.5-13.3,4.7l-2.1,1.7.6-1.2c.8-1.6.8-2.3-.2-2.9-2.9-1.9-79.5-22.1-91.7-24.2-3-.5-3.8-.2-4,1.6,0,.7,0,2.4.3,3.7.8,4.3,0,6.7-3.3,10.4-3.4,3.8-4.1,5.3-3,6.1.9.7,36.3,12.9,45.1,15.5,18,5.4,30.3,6.2,40.1,2.7,3.4-1.2,7.8-3.8,10.5-6.2,1.1-1,2-1.6,2-1.5s-.5.9-1.2,1.8c-.6.9-1.9,3-2.8,4.7l-1.7,3.1-4.5,1.1c-17.5,4.4-19,5.1-27.6,13.7-6,6-7.9,7.4-11.9,8.8-2.5.9-8.6,2-13.3,2.4l-1.6.2-1.2-2.4c-.8-1.7-1.1-2.4-.8-2.5.2,0,1.4-.3,2.7-.5,3.4-.6,7.3-2.3,10.6-4.5,3.4-2.3,7.4-6.3,7.7-7.7.8-4.2-5.7-8-29.6-17.1-13.2-5-45.6-16.8-45.8-16.6,0,0-.4,2.2-.7,4.8-.9,8.2-1.9,10-6.9,12.8-4.1,2.3-4.7,2.8-4.5,3.4.6,1.6,25.3,15.4,34.1,19l1.8.7-1.8,2.2c-1,1.2-1.9,2.1-2.1,2.1s-1.1-.7-2-1.4c-2-1.6-8-5.3-12.8-8-8.4-4.6-25.1-13.1-28.4-14.3-1.4-.5-2.7.7-4.1,4.2-1.5,3.8-3.3,5.6-6.9,6.9-2.8,1-4.4,2.1-4.4,2.9,0,1.2,6.8,7.4,15.3,14.1,9.2,7.2,14.9,10.9,19.5,12.6,4.4,1.7,10.5,2.4,13.7,1.6.7-.2,1.3-.2,1.3-.2,0,.8-2.6,6.3-3,6.5-.3,0-4.2,1-8.6,1.9l-8.1,1.8-1.9,1.8c-3.7,3.6-8.7,6.8-10.4,6.7-.4,0-2.5-.3-4.6-.6h0v-.9ZM916,444.7c.3-1.2,0-3.1-.9-4.3l-.7-1.1v3.5q0,3.5.7,3.1c.4-.2.8-.8.9-1.2h0ZM936.8,445c2.4-.6,5.7-2.4,6.9-3.7,2.2-2.5,2-5.1-.9-9.3-2-3-3.4-4.5-8-8.9-6.9-6.6-12.1-10.1-16.3-11.3-1.5-.4-5.2-.4-5.6,0,0,.1,0,2,.3,4.3.6,4.9,1.2,11.6,1.2,14.3v2l5.2,5.2c4.2,4.2,5.7,5.4,7.6,6.4,3.4,1.7,5.8,1.9,9.6,1h0ZM964.5,435.2c1.8-.6,5.2-3.1,6.4-4.6,1-1.3,1.3-3.6.6-5-1.3-2.4-5.8-6-13-10.4-8.7-5.2-14.4-7.9-20.7-9.9-2.3-.7-3.8-1-6.1-1s-3.1,0-3.9.8c-1.2,1.1-1.1,2.2.2,4.9,1.9,3.8,9.6,11,20.2,18.7,9.1,6.6,12.1,7.9,16.2,6.5h0ZM988.8,421.7c2.6-1.3,5.5-4.4,7-7.4,1.9-3.8.9-6.7-3.3-9.9-5.5-4.1-24.4-11.9-33.1-13.7-3.8-.8-8.2-.6-10.2.4s-3.8,3.1-4.3,4.5c-1.7,4.3,2.2,8.7,14,15.9,13.1,8,20.3,11.2,25.6,11.2s2.6-.2,4.4-1h-.1ZM1168.4,410c6.2-1.3,12.7-4,18.7-7.7,9.9-6,15.1-13.2,10.6-14.6-3.1-1-24.3-4.5-73.6-12.1-20.8-3.2-43-6.7-49.4-7.7-6.4-1.1-11.9-1.9-12.3-1.8-1.3.2-1.5,1-.8,4.5.8,4,.5,6-1,9.1-.6,1.3-2.4,3.8-3.9,5.7-1.5,1.9-2.6,3.5-2.5,3.6.4.4,60.9,15.3,69.4,17.1,8.9,1.9,18.3,3.6,23.3,4.1,1.8.2,3.8.4,4.5.5,3.2.4,13.7-.1,16.9-.8h.1ZM1021.6,404.4c3.4-2,5.8-6.1,5.8-10s-1.2-5.9-4.3-7.3c-2.1-1-8.6-3-15.8-5.1-7.1-2.1-36.6-9.8-37.3-9.8s-5.9,6.5-7,8.8c-.7,1.6-.8,2-.5,3,.2.7,1,1.8,1.8,2.4,2.7,2.4,14.5,7.6,29.7,13.3,11.9,4.4,17.3,5.8,22.5,5.6,3,0,3.6-.2,5-1h0ZM1220.2,381.3c7.8-1,17.4-3.6,22.5-6.2,10.1-5,20.5-16,18.8-19.9-.6-1.2-1.8-1.4-12.3-2.1-30.5-1.9-130.1-9.4-148.9-11.2-3.9-.4-7.2-.6-7.3-.5,0,.1,0,1.6.4,3.2,1.4,7.5.7,9.5-5.8,16.2-2.4,2.5-4.3,4.5-4.2,4.6.6.5,16.2,3,45.8,7.4,60.2,8.9,76.1,10.3,91.1,8.4h0ZM1292.4,352.3c24.3-2,51.4-11.3,65.5-22.6,9.7-7.7,8.6-11-4.1-12.6-4.9-.6-7.1-.7-69.2-3.1-111-4.3-149.5-5.7-162.4-5.7h-7.2l3.3,3.5c5.2,5.5,6.7,8.1,6.7,11.6s-1.4,5.6-6.8,10.9c-2.6,2.5-4.5,4.5-4.3,4.5.7,0,99,7.9,132.1,10.6,18.3,1.5,34,2.8,34.8,2.9,3.3.3,7.5.2,11.5-.1h0ZM476.3,475.4c-2.8-.6-38.4-8.5-79.1-17.5s-74.7-16.5-75.5-16.8-2.8-.7-4.3-.9c-1.5-.2-3.1-.5-3.6-.7-2.3-.9-3.1-3-1.7-4.2.5-.5,7.5-2.1,25.9-6.1,13.8-3,25.2-5.6,25.3-5.7.2-.3-4.3-4.2-7.2-6.2-3.5-2.5-5.5-3-14-3.4-17-.7-21.5-1.3-28-3.4-8.5-2.8-14.4-6.4-24-14.7-6.3-5.4-8.4-7-11.5-8.4-3-1.4-5-2-12-3.1-10-1.6-19.7-5-31.4-10.9-6.4-3.2-11.2-6.2-15.6-9.7-3.8-3-5.9-4.2-8.8-5-2.8-.8-8.3-1.5-15.8-2.1-3.7-.3-8.6-.7-11-.9-13.6-1.1-20.7-3.1-33.5-9.6-10.6-5.4-20.8-12.1-27.2-17.8-8.1-7.3-10.1-8.6-14.1-9.5-1.3-.3-5.3-.6-9-.7-13.5-.5-24.9-2.3-37.8-6-11.9-3.5-19.4-7-27.4-12.8-12.6-9.3-30.7-26.8-34.2-33.3l-.9-1.7.7-.6c1-.8,4.8-1.3,12.5-1.7,11.7-.6,74.9-1,135.9-.8,33.3,0,130.5.3,216,.5l155.5.4,6,3c8.1,4.1,12.7,7.1,17.2,11.7,8.6,8.6,13.2,18.8,17,38.2.5,2.6,1,4.6,1.2,4.5,0-.2,1.8-2.6,3.7-5.5s5.1-7.4,7.2-10.1c2-2.7,3.9-5.1,4.1-5.4.4-.5-.3-3.7-4.1-19.4-2.5-10.4-4.7-19.7-5-20.6-.5-1.5-.5-2,0-2.8.5-1.2,1.9-2.4,2.8-2.4s9.6,2.5,20.6,5.5c11,3,20.2,5.5,20.4,5.5s2-1.1,3.8-2.5c21.9-16.6,50.3-30.4,76.4-37.1,4.3-1.1,5.1-1.4,5.2-2,0-.4,3.5-15.9,7.6-34.5,10.6-48.3,38.5-174.7,39.3-177.8.4-1.4.8-3.5,1-4.7.4-2.6,1-3.8,2.2-4.6,1.1-.8,2.1-.6,2.9.5.4.6,20,89.5,42.8,194.4l5.9,27.2,5.5,1.5c26.6,7.1,52.6,19.7,74.9,36.4l4.9,3.7,21.1-5c11.6-2.8,21.9-5.3,22.9-5.6,2.1-.7,3.4-.3,4.6,1.4l.8,1.1-.7,2.6-.7,2.6-2,.3c-1.1.2-2.1.2-2.2.1,0,0,0-1,.4-2,.3-1,.5-1.9.4-1.9,0,0-23.7,5.6-52.4,12.6-28.8,7-54,13.1-56,13.6l-3.7.9,5.8,2.9c17.3,8.8,33.2,20.5,46,34,5.4,5.7,9.1,10,8.9,10.4,0,.1-1.1.7-2.3,1.3l-2.1,1-.9-1.2c-5-6.4-16.5-17.5-25-24-28.4-21.9-63.3-34-98.4-34s-26,1.4-39.2,4.6c-24.3,5.9-45.5,16.7-65.4,33.1-4.9,4-16,15.1-19.9,19.8-8.4,10.1-15.6,21-21,31.7-1.6,3.1-2.4,4.9-4.7,10.2l-.5,1.1-2.3-.5c-1.3-.3-2.4-.5-2.4-.6,0,0,0-.7.4-1.5.7-2,.3-2.2-4.5-2.5-4.7-.3-7.4-.9-10.6-2.5-6-2.8-10.5-7.9-14.4-16.1-3.6-7.5-5.6-14.8-8.4-30.2-4.3-24-7.7-32.6-15.8-40.7-4.2-4.2-8.1-6.8-17.9-11.8l-7.8-4h-108.9c-132.4,0-297.2.5-331.3,1-28.9.4-44.6.9-45.5,1.4-1.5.8-.4,3.4,3.2,7.7,7,8.3,19.1,16.8,31.6,22.3,15.6,6.8,32,9.7,60.4,10.8,21.9.8,45.8.3,124.9-2.7,29.4-1.1,65.5-2.4,80.1-2.9,120.6-4,133.1-4.5,157.5-6.1l11.4-.8,7.2,7.2c8.4,8.3,11.2,11.6,13.8,15.7,2.4,3.8,3.4,7,4.7,14.5,2.8,16.9,4.6,24,6.9,28.8.6,1.1,1,2.1.9,2.1,0,0-2.1-.2-4.6-.6-2.4-.4-4.6-.7-4.9-.7s-.4-.7-.4-2.2c0-2.9-1-4.9-3.1-6.1-1.5-.8-1.7-.9-8.1-.8-7,0-10.8.5-28.6,3.2-6.7,1-9.7,1.4-13,1.4-6.5,0-19.1.6-24.9,1.2-9.3,1-13.6,1.9-19.1,4.3l-3.2,1.4h-5.5c-4.8,0-11.1-.5-8.8-.6,1,0,8.3-1.5,8.5-1.6,0,0-1.8-2.1-4.2-4.5-6.5-6.8-7.3-8.7-5.9-16.2.3-1.7.5-3.2.4-3.3s-3.6.1-7.7.5c-19.6,1.9-119.7,9.4-148.9,11.2-9.9.6-11.3.8-11.9,2.1-1.7,3.7,8.2,14.3,18.3,19.5,5.5,2.9,15.9,5.7,24.7,6.7,6.5.8,19.4.4,31.7-.9,10.1-1,47.7-6.1,54-7.2q1.1-.2-1,1.9l-2.1,2.1-13.4,2.1c-17.4,2.7-39,6.3-44.8,7.5-4.3.9-4.7,1-5.1,1.9-.4.8-.4,1.2.4,2.8,2.4,5.3,13.9,13.2,24.1,16.6,6.1,2,9.6,2.6,17.1,2.6s8.3-.2,10.1-.4c6.3-.8,15.3-2.5,22.8-4.1l7.5-1.6,3.6,1.8,3.6,1.8-8.7,2.5c-4.8,1.4-9.3,2.8-10.1,3.1-1.2.5-1.3.6-1.1,1.7.4,2.7,4.7,7.2,10.1,10.8,4.1,2.7,7.4,4.1,12.4,5.1,3.1.6,4.3.7,9.4.6,8-.2,13.8-1.3,25.5-4.8l5.9-1.7,2.9,1c2.6,1,2.8,1.1,2,1.4-11.4,4.5-17.4,8.2-17.9,10.9-.3,1.4.6,3.1,2.4,5.1,4.1,4.2,9.1,7.1,15.2,8.7,3.2.9,13.4.9,17.5,0,8.3-1.8,17.3-5,26.1-9.5l1.9-1,2.3.8,2.3.8-3.9,2.4c-8.6,5.2-12,8.6-12,12.1s4.9,8.7,8.6,10.5c5,2.4,12,2.5,18.5,0,4.1-1.5,10.4-5.5,17.5-11,2-1.5,3.8-2.9,4-3s1.3,0,2.4.4l2,.6-4.8,4.6c-4.2,3.9-6,5.9-9.2,9.9-.6.8-.7.8-4.6.4-3.8-.4-4-.4-6,.4-1.8.7-2.2,1.1-3.4,2.8l-1.3,2-3-.2c-2.7-.1-2.8-.1-1.4.2.9.2,1.7.5,1.8.6.1.1-1.1.4-2.6.6s-3.7.7-4.9,1.1c-1.2.4-2.4.6-2.8.6s-3-.5-5.8-1.2h0l.5-.7ZM471.5,468.8c-4.3-2.4-7.7-5.5-9.2-8.5-2.2-4.4-3.3-4.1-9.8-3.4-7.2.7-20.1-.3-27-2.1-4.9-1.3-6.9-3.4-13.2-9.5-3.1-3-6.3-6-7-6.6-4-3-8-4.5-19.7-7.4-4.6-1.1-10-2.6-12-3.3l-3.6-1.2-22.8,5c-12.5,2.7-22.9,5.1-22.9,5.2,0,0,.4.3,1,.4s33.9,7.5,73.9,16.3,73.1,16.1,73.4,16.1,0-.4-1-.9h0ZM589.9,349.2c-2.2-8.8-5.3-21.8-7.1-29-1.7-7.2-3.2-13.3-3.3-13.5,0-.4-.3-.4-.8.2-2,2.1-13.6,19.1-14.8,21.8-.3.7-.2,1.7.7,5.3,2.4,9.7,4.6,16.2,6.5,18.8,3.6,4.9,10.9,9.8,17.3,11.7,2.4.7,5.2,1.1,5.3.9,0-.1-1.7-7.4-3.8-16.1h0ZM604.9,350.7c12.6-21,30.8-39.8,51.7-53.4,5.7-3.7,8.5-5.3,14.6-8.5l5.1-2.6-1.9-.5c-9.8-2.8-102.4-28.3-102.5-28.2,0,0,5.6,23.7,12.6,52.4,7,28.8,12.8,52.7,12.9,53.1.2.7.7,0,2.9-4.3,1.5-2.8,3.5-6.4,4.5-8h.1ZM434.8,360.2c6.5-.6,39.4-5.4,52-7.6,12.5-2.1,21.4-4.4,24.2-6.2,1.8-1.1,2.9-2.6,2.9-4s-1.5-4.5-3.5-6.8c-2.5-2.8-3.7-3.1-12.6-3-6.9,0-20,.8-38.4,2.2-22.8,1.7-38.6,3.6-41.2,5-1.4.7-3.3,3.1-3.7,4.8-.9,3.3.5,7.8,3.4,10.4,2.1,2,7.5,4.7,10,5.1,2.7.4,2.8.4,7,0h-.1ZM254.4,347c19.5-1.6,55.8-4.6,80.5-6.5,24.7-2,46.2-3.7,47.7-3.8l2.7-.2-4.6-4.5c-5.4-5.3-6.8-7.5-6.8-10.9s1.5-6.1,6.6-11.5l3.2-3.4h-6.7c-11.4-.3-45.7.9-163.7,5.5-59.9,2.3-63.4,2.5-68.4,3.1-10.8,1.4-12.8,4-7.3,9.5s7.8,6.4,11.6,8.6c13.2,7.8,36.4,14.9,54.2,16.6,2.1.2,4.4.4,5.1.5,3.3.3,12.4-.3,45.8-3h0ZM420.7,334c27-1.3,48.2-3.2,64.5-5.5,13.4-2,13.5-2,11.8-5.3-3-5.8-13.9-14.1-23.6-17.7-5.3-2-7.8-2.3-21.5-2.5-12.8-.2-35.1.3-43.5,1-6,.5-11,1.5-13.7,2.8-2.8,1.4-6.2,4.5-7.7,7.2-1.1,2-1.2,2.4-1.2,5.2s.1,3.3,1,5c1.2,2.3,4.2,5.5,6.8,7.2,4.7,3.1,8.5,3.5,26.9,2.6h.2ZM683.4,283.1c.5-.3,12-52.4,11.6-52.7-.2-.2-7,1.7-14.5,4.2-18,5.9-34.3,13.8-49.9,24.3-5.6,3.8-10.3,7.1-10.3,7.4s7.8,2.4,17.4,5c9.6,2.6,23.2,6.4,30.3,8.5,12.6,3.6,14.5,4,15.4,3.4h0ZM827.7,278c8.7-2.2,22.5-5.6,30.6-7.6s15.4-3.8,16.1-3.9l1.3-.4-2.2-1.6c-17.3-12.6-38.1-23.3-58.8-30.2-5.4-1.8-14.2-4.3-14.4-4.1,0,.1,10.6,50.5,11,51.3,0,.2.2.4.3.4s7.3-1.8,16.1-4h0ZM691.8,279.8c7.6-2.8,19.5-6,28.9-7.5,21.7-3.6,46.1-2.6,67.6,2.8,5.1,1.3,13.8,3.9,16.3,5,.8.4,1.6.6,1.7.5.2-.2-57.9-266.9-58.2-267.3,0-.1-13.4,59.7-29.5,133s-29.4,133.5-29.5,133.9c-.2.8,0,.8,2.8-.3h0ZM1062.7,463.5c-.5-1.4-.7-2.2-.4-2.3.6-.4,50.5-11.1,50.7-10.9.3.3-.6,4.4-.9,4.6-.2.1-10.8,2.5-23.7,5.3-12.9,2.8-23.7,5.2-24.1,5.3-.6.1-.8-.2-1.5-1.9h0ZM887,457.3l-1.8-.7.2-1.7c1.1-8.1,1.5-18.8.9-26.6-.2-3.1-.5-6-.6-6.4,0-.6.2-1,1.8-2,1.1-.7,2-1.2,2.1-1.2,0,0,.3,1.8.6,3.9.6,5,.6,24.1,0,29.2-.6,5.2-.8,6.4-1.1,6.3,0,0-1-.4-2.1-.7h0ZM852.8,444.3c0-.2-.2-.4,0-.4,0,0,.4-.3.7-.5.5-.4.6-.4.6.4s-.8,1.3-1.2.5ZM1164.8,441.2c-.3-1.2-.4-2.2-.2-2.3.2-.1,2-.6,4.2-1,2.1-.5,3.7-.9,3.4-1-.3,0-2.4-.5-4.6-1l-4.1-.9-.8-2.4c-.4-1.3-.7-2.4-.6-2.5.2-.2,11.8,2.4,13.4,2.9.6.2,2.2.5,3.6.7,4.4.6,6.8,2.3,5.9,4.2-.2.4-.7,1-1.2,1.2s-4.5,1.2-9.1,2.2c-4.5,1-8.5,1.8-8.8,1.9-.4.1-.7-.3-1.1-2h0ZM655.5,387.3c-.8-.2-1.4-.4-1.5-.4-.3-.2,4.9-8.5,7.7-12.3,4-5.4,7.5-9.5,12.1-13.9,16.2-15.6,36.7-25.7,58.8-29,11-1.6,25.8-1.2,36.3,1,15.6,3.3,30,9.7,42.2,18.9,3.9,2.9,10,8.1,10,8.4s-.6.5-1.4.8c-1.6.7-1.2.9-5.8-2.9-12.3-10.4-28.6-18.4-44.5-21.8-7.4-1.6-10.5-1.9-18.9-2.1-11.9-.3-20.7.8-31.8,4-24.3,7-46.3,23.9-59.2,45.6-1.3,2.1-2.4,3.9-2.5,4,0,0-.8,0-1.6-.2h.1ZM618.6,379.7c-.8-.2-1.6-.4-1.7-.5,0,0,1-2.4,2.3-5.2,19.9-41.1,59.4-70.7,104.9-78.3,15.8-2.7,34.1-2.5,50.3.5,28.7,5.3,55.9,20.1,76.6,41.6,2.4,2.5,4.4,4.7,4.4,4.8s-.8.7-1.9,1.2l-1.9.9-2.4-2.7c-3-3.3-10.5-10.2-14.8-13.6-24.4-19.4-55.3-30.4-86-30.4s-59.2,9.4-83.7,27.6c-10.4,7.7-21.2,18.6-29.2,29.5-4.7,6.4-10.5,16.1-13.3,22.3q-1.2,2.7-3.7,2.1h0v.2ZM913.5,313.3c0-.3,2-7.2,4.2-15.3l4.1-14.7,1.5,1.1c.8.6,1.6,1.3,1.7,1.5,0,.2-.7,3.6-1.8,7.4s-1.9,7.2-1.9,7.6,1,1.9,2.2,3.5,2.2,3.1,2.2,3.2-1.3.9-3,1.7c-2.6,1.3-3,1.4-3.3.9-.5-.8-.8-.7-1.1.4-.2.8-.6,1.2-2.5,2.1-2.6,1.3-2.7,1.3-2.5.5h.2ZM942.9,299.2c0-.6,1.1-3.5,1.4-3.7.3-.2,3.4,1.1,3.4,1.4s-1.1.7-2.4,1.4c-1.3.7-2.4,1.1-2.4.9h0Z"/>
  <path id="path27141" class="st2" d="M666.8,624c-5-1.9-7.2-7.7-4.7-12.6,1.8-3.4,4.8-5.1,8.7-4.9,5.7.4,9.3,5.5,8.1,11.3-.8,3.7-5,6.9-8.8,6.8-.8,0-2.2-.3-3.2-.7h0ZM828.9,623.3c-2-.3-3.4-1-4.9-2.5s-2.5-3.5-2.5-6.4.6-4.5,2.5-6.4c3.4-3.4,9.3-3.5,12.7,0,4.3,4.3,3.4,11.2-1.8,14.4-1.4.9-3.9,1.3-6,1h0ZM957.3,559.7c-6.7-.9-11.4-2.4-16.2-5.3-5.3-3.2-8.8-6.8-12.1-12.5-.8-1.4-1.6-2.6-1.9-2.7-.3,0-7.3-1.2-15.6-2.3-41.4-5.7-78.5-12.1-146.7-25.4-29.4-5.7-30.8-5.9-34.7-5.7-1.6.1-15.3,1-30.4,1.9-15.1.9-30.8,2-34.8,2.4-9.9.9-22.3,1.6-35,2.1-5.8.2-15.1.5-20.8.7-13,.4-19,.9-23.2,1.7-1.8.4-4,.7-4.9.9l-1.6.2.7,1.6c.9,1.9.9,5.1,0,7-1.4,3.4-4.9,5.8-8.4,5.7-3.4,0-6.9-2.2-8.3-5.4-.7-1.5-.9-4.3-.5-6.2l.2-1.1h-3.2c-10.5,0-38.9-2.4-51.4-4.2l-2.9-.4-2.1,2c-4,3.7-9.1,5.4-12.8,4.4-3.7-1-7.3-4.7-9.3-9.4-.8-1.8-1.1-2.2-2.1-2.5-2.9-.8-9-2.8-12.2-4-9.3-3.6-12.7-9.4-7.6-13,2.6-1.9,9-3.3,15.7-3.5h3.2l.6-3.7c1-6.2,2.5-11.4,5-17,7.8-17.6,21.8-21.9,28.9-9,.7,1.3,1.5,3,1.7,3.9.4,1.5,1.1,1.9,1.7.8.4-.8,3.4-8.7,3.3-8.7,0,0-12.9-4.2-28.6-9.3-41.9-13.5-59-19.5-79.1-27.3-20.5-8-32.8-13.9-39.8-19.1-5.3-3.9-10.1-9.6-11-12.9-.2-.8-.3-2.8-.2-4.6.1-2.8.2-3.3,1.3-5.1,3.2-5.4,10.1-8.4,22.3-9.9,6.4-.8,17.5-1.3,22.7-1.1,2.5.1,6.9.2,9.6.2h5l3.2-1.4c7.4-3.2,16.8-4.6,34.8-5.1,17-.5,31.4.4,53.3,3.1,31,3.8,59.6,8.6,98.2,16.3l10,2,2-.9c3.1-1.3,5.4-1.8,8.5-1.6,3.9.3,7.1,1.9,10.4,5.2l2.4,2.5,6.7,1.6c3.7.9,12,2.8,18.5,4.4,6.5,1.5,12,2.9,12.2,2.9.5.2.8-2.2.8-5.3s.8-9.6,1.7-14.1c1.3-6.9,3.8-14.4,6.7-20.7,6.8-14.7,15.3-23.1,24.4-24.2,7.6-.9,14.2,4,18.1,13.4,1.5,3.6,3.1,9.7,3.7,14,.2,1.8.5,3.3.5,3.3,0,0,2.6.7,5.6,1.5,8.5,2.1,19.6,5.2,33.4,9.3,6.9,2.1,12.8,3.7,13.1,3.7.8,0,24.1-11.5,94.6-46.6,33.3-16.6,60.7-30.3,60.7-30.5s-2.9-1.7-6.5-3.3c-11.9-5.2-16.6-8.1-21.3-12.7-4.5-4.4-5.4-7.1-4.2-11.3,1.1-3.7,5.1-6.3,12.2-7.8,4.1-.9,16.9-.9,22.7,0,17.8,2.7,35.3,8.4,60.4,19.4,20,8.8,44.8,21.4,61.9,31.6,6,3.6,6.9,4.8,4.1,5.9-1.1.4-3,.5-11.2.5s-16-.4-31.1-2.6c-16.3-2.4-15.6-2.3-15.9-1.9-.2.2-.6,1.6-1.1,3.1-1.9,6.8-8.2,17-15.3,24.9-3.6,4-9.3,8.5-21.3,16.5-16.4,11-63.2,42.4-65.8,44-2.5,1.6-21,14.1-30.7,20.7-2.3,1.5-8.1,5.5-13,8.7-8.7,5.8-15.3,10.5-15.8,11.2-.2.4,2.3,1.4,13.9,5.7,17.4,6.5,71,26.2,71.8,26.4.8.2,1.3,0,3.4-1.9,6.3-5.3,12.2-6.8,17.2-4.3,4.4,2.1,9.6,8.4,12.3,14.6l1,2.2,4.7.8c6,1,14.8,1.8,19,1.8s3.4,0,6.1-1.4c3.3-1.6,5.7-4,7.3-7.1.6-1.1,2.3-5.2,3.8-9.1,3.3-8.2,4.6-10.9,8.2-16.9,2.3-3.8,3.2-5,6.9-8.8,3.2-3.2,4.9-4.6,6.4-5.4,6.4-3.3,14.2-.4,19.6,7.1,4.6,6.4,9.3,18.1,12.4,30.4.6,2.5,1.2,4.6,1.4,4.8.4.4,1.7.2,19-3.1,14.7-2.8,19.7-3.8,20.3-4.3.2-.2.5-2.7.6-6.7.4-12.9,2.9-23.8,7.8-33.9,4.2-8.7,8.4-14.7,13-18.3,5.2-4.1,8.7-5.6,13.2-5.6s8.3,1.5,12.3,5.7c5.1,5.2,8.7,12.5,11.3,22.8,2.3,8.8,3.3,17.3,4.1,34.8l.3,6,1.6,2.5c.9,1.4,1.6,2.7,1.6,2.9,0,.6-1.3,2.1-2.5,2.9-1.1.7-1.2.8-1.6,4.1-1.4,11.5-1.9,12.9-5.1,15.9-2,1.9-3.9,2.9-7,4-2.9,1-11.6.9-16.4,0-6.4-1.4-11.3-3.4-16.8-6.9l-2.8-1.8-20,5.8c-30.1,8.8-30.6,8.9-31.2,9.5-.3.3-1.1,2.1-1.8,4-2.1,5.7-5,9.9-8.3,12.2-2.9,2-10,4.2-17.5,5.5-13,2.2-22.8,2.8-45.7,2.8s-18.6,0-18.8.6c0,.3-.5,1.9-.9,3.5-1,4.3-2,6.6-3.5,8.4-3.4,3.9-8.4,5-17.2,3.8h0l.4.2ZM967.3,556.5c4.3-1.3,6.2-3.1,7.7-7.2,1.1-2.9,1.3-4.9.6-5.6-.3-.3-.8-.6-1.1-.6s-10.3-.8-22.2-1.7-21.7-1.7-21.7-1.7c-.4,0,3.3,4.7,5.6,7,4.4,4.5,8.5,6.8,15.1,8.6,6.9,1.8,12.6,2.3,16.1,1.2h0ZM1024.4,539c12.6-1,26.5-3.2,26.2-4.2,0-.3-222.4-66.9-229-68.7-.6-.1-2.9,1.3-9.6,5.9-9.5,6.5-23.2,16.3-24.3,17.3q-.6.6.7,1.2c.7.3,8.6,3.2,17.5,6.4,8.9,3.2,16.4,6.1,16.7,6.4.8.7.8,1.6,0,2.2-1.4,1.2-17.3.7-32.6-1.1-26.3-3-43.7-5.9-74.3-12.2-38.2-7.9-70.1-16.2-80.2-20.8l-3-1.4-1.4,1.3c-2.2,2.1-4.7,3.9-6.7,4.9l-1.8.9,1.7.4c.9.2,8.4,1.9,16.6,3.8,77.7,18,192,40.2,256.4,49.8,31.4,4.7,56.2,7.1,84.2,8.3,8.9.4,36.9,0,42.9-.3h0ZM1063.6,525c.6-.2.9-.7,1.3-2.1.3-1,.5-1.9.4-2.1-.3-.3-24.8-2.9-25.6-2.8-.3,0,3.1,1.2,7.6,2.6,14.9,4.7,14.7,4.7,16.3,4.3h0ZM498,515.6c1.1-.5,2.6-1.5,3.2-2.2l1.2-1.2-.8-.2c-.5-.1-2.9-.6-5.5-1.1-2.5-.5-6.3-1.2-8.2-1.7-2-.5-3.7-.7-3.8-.7-.3.3,1.5,3.4,2.9,4.8,3.3,3.6,6.6,4.3,11,2.1v.2ZM561.3,515c0,0-4.8-1.1-10.7-2l-10.7-1.8-1.7,1.1-1.7,1.1,1.3.2c1.9.3,10.6,1,17.1,1.3,3,0,5.7.3,5.9.3s.4,0,.4-.2h.1ZM582.7,513.4c2.1-.3,3.9-.9,5.5-1.7,2.3-1.1,4.3-2.7,3.9-3.1,0,0-4.7-1.3-10.3-2.7-9.6-2.4-12.4-3.2-25.5-7.4-3-1-5.6-1.7-5.8-1.7s-1,1.2-1.7,2.6c-2,3.8-3.6,6.2-5.6,8.4l-1.8,1.9,1.7.4c2.7.6,13,2,19,2.6,12.9,1.3,16.1,1.4,20.6.7h0ZM533.5,511.8c3-.9,2.7-1.1-4.5-2.5-3.8-.8-6.8-1.3-6.8-1.2,0,.4,2.5,2.6,3.4,3.1,2.6,1.3,5,1.5,7.9.6h0ZM1022.2,512.4s-5.9-3-12.8-6.5c-11.7-5.8-14-7.1-13.5-7.7.5-.5,8.9-2.3,45-9.4,5.8-1.2,10.8-2.2,10.9-2.3.2-.1.2-.3,0-.5-.4-.4-7.2-2.4-18.5-5.6-11.8-3.3-15.1-4.1-15.8-3.9-.3.1-1.4,2-2.6,4.3-3.1,6.1-5.8,8.8-11.5,11.1-3.7,1.5-8,1.6-16.4.4-10.4-1.5-20.5-3.3-24.7-4.4-4.4-1.1-26.9-9.3-75-27.1-17.9-6.6-34-12.6-35.8-13.2l-3.1-1.2-5.4,3.8c-3,2.1-5.2,3.9-5.1,4.1.9.8,41.3,13.7,95,30.2,19,5.8,62.4,19.4,80.5,25.2,7.8,2.5,8.9,2.8,8.6,2.5h0l.2.2ZM521,510.8c-.7-.7-1.6-2-2.1-2.7-.9-1.3-1.1-1.4-4.5-2.3-2-.5-3.7-.8-3.8-.7-.5.5-2.8,4.8-2.7,4.9,0,0,3.3.6,7.1,1.1s7,1,7.1,1c0,0-.4-.6-1.1-1.3ZM639.9,510.1c6.1-.8,11-3.2,12.6-6.2.9-1.5.9-1.6.2-2.4-1-1.3-6-5.2-10.3-8-9.5-6.2-21-11.3-35-15.6-6.2-1.9-17.6-4.9-17.8-4.7,0,0-.3,2.2-.5,4.7-.6,7.6-2.7,12.9-8.3,20.6-1.5,2.1-2.7,3.9-2.7,4.1,0,.3,10.7,2.7,15.8,3.6,4.5.8,16.6,2.5,23.6,3.3,11.7,1.4,16.3,1.5,22.4.7h0ZM1157,509.6c1.2-.3,2.9-.9,3.8-1.3,3.6-1.8,5.2-3.9,6.1-8.3.6-2.8,1.1-9.4.7-9.4s-1.1.2-2.2.5c-3.7,1-6.4.6-19.7-2.6-11.1-2.7-21.8-5.6-27.4-7.4-2.5-.8-4.7-1.5-4.9-1.4-.9.3,2.9,10.6,5.3,14.4,2.1,3.2,6.5,7.6,9.8,9.6,4.6,2.8,12.7,5.6,18.7,6.4,2.6.4,6.9.1,9.8-.5h0ZM505.6,508.3c.6-.8,1.4-2.1,1.7-2.9l.7-1.4-3-1c-4.5-1.4-10.2-4.4-12.3-6.3-1.7-1.5-1.8-1.8-2.2-3.8-.5-3.2-.7-3.5-2.8-3.5s-2.9-.1-4.2-.2l-2.4-.2.2,5.8c.1,3.8.4,6.6.8,8.2l.6,2.4,1.7.4c2.9.7,18,3.7,19.6,3.9.2,0,.8-.6,1.4-1.4h.2ZM540.7,506.6c3.3-3.9,7.1-10.2,6.7-10.9-.3-.4-5.7-1.8-6.2-1.6-.3,0-1.2,1.8-2.1,3.7-.9,2-2.7,4.9-4,6.5-2.6,3.4-2.7,3,1,4.1,1.2.3,2.3.5,2.6.3s1.2-1.1,2.1-2.1h0ZM479.8,503.9c-.5-1.9-1.2-8.3-1.2-11.6v-3.6l-4.2.2c-5.2.3-9,1-11.8,2.3-3.4,1.6-3.6,2.9-.8,5.7s6.9,4.4,12.9,6.2c5.3,1.6,5.5,1.7,5.2.6h0v.2ZM522.6,503.2c2.2-1.9,6.7-10,7.2-13.1.2-1.2,0-1.4-1.8-3.5-2.2-2.4-2.9-4-3.3-7.4-.4-3.3-.7-3.9-3.7-6.5-1.5-1.3-3-2.4-3.2-2.4-.3,0-.4,1.2-.4,4.7s-.2,6-.3,7.5c-.8,6.4-.8,8.1,0,12.2,1,5.3,2.1,8.6,3.2,9.2,1.1.6,1.2.6,2.5-.6h-.2ZM516,502.5s-.4-1.6-.8-3.3c-.6-2.4-.9-3.1-1.1-2.6,0,.4-.6,1.6-1,2.7s-.8,2.1-.7,2.1c1,.5,3.7,1.4,3.7,1.1h-.1ZM511.6,495.4c1.6-4.8,2-7.3,1.8-9.2-.2-1.4,0-4.1.7-13.7,0-1.8,0-2.8,0-2.8s-2.6-.3-5.4-.7c-4-.5-5.4-.6-6.7-.3-1.9.4-4.5,2-5.7,3.5-1.5,1.8-.9,1.8,1,0s2.8-2.1,4.3-1.8c1.4.3,2.1,1.7,2.5,4.7.6,4.6-.9,10.8-3.3,13.9-1.6,2.1-3.4,3.4-5,3.6-1.7.2-2.2-.1-3-2.2-.3-.9-.7-1.8-.9-1.9-.5-.6,0,1.9.8,3.5.6,1.3,1.1,1.6,3.5,2.8,1.5.8,5.2,2.4,8.1,3.6,6.2,2.5,5.5,2.8,7.3-2.9h0ZM566.2,496.9c2.1-2.6,5.1-7.6,6.5-10.7,2.8-6.4,4.2-16.5,2.3-17-1.6-.5-17.9-5-18-5s0,1.8-.2,4c0,7-1.5,14.5-4.2,22.3-.8,2.2-1.4,4.1-1.3,4.1.4.3,11.9,4.3,12.5,4.3s1.3-.6,2.3-1.9h.1ZM549.9,490.3c2.6-6.8,4.2-15.2,4.3-22.6v-4.4l-5.6-1.6c-3.1-.9-5.8-1.5-5.9-1.5s-.3,1.7-.3,3.7c0,8.4-2.7,15.3-7.3,18.3-4.4,2.9-6.8,1.9-7.4-3-.3-2.4-1-2.5-.8-.2,0,2.1,1.5,4.9,2.9,5.8,2.7,1.8,17.2,8.3,18.6,8.3s.9-1.3,1.5-3h0v.2ZM497.7,486.5c1.9-2.8,3.2-9.2,2.2-10.5-.6-.8-4.1-1-9.2-.5-8.7.7-9.2,1.3-5.1,5,5.2,4.6,9.3,7.4,10.6,7.2.4,0,1-.6,1.4-1.2h.1ZM489.8,486.8c.1-.4-6.6-7.2-7.2-7.2s-.4,1.4-1.1,6.4c0,.7,0,.8,2,.9,1.2.1,2.6.2,3.3.3,2,.2,2.9,0,3-.4h0ZM969.7,485.1c0-1.5-3.4-6.7-6.4-9.7s-2.7-2.4-3.8-2.9c-1.6-.7-2.2-.8-4.6-.7-1.9.1-3.4.4-4.5.9-2,.9-5.2,3.2-5.7,4.2-.3.6-.2.8,1.3,1.5,2.1,1.1,11.7,4.3,17.3,5.9,4.4,1.2,6.5,1.5,6.5.9h0ZM1169.1,478.3c0-1.3-1.4-18.2-1.5-18.9,0-.4-.4-.8-.8-.9-.8-.2-49.9-11.2-50.5-11.3-1-.1-2.2,6.9-3.3,19.5-.6,7-.4,8.6.8,8.2,1-.3,10.4-1.6,14.3-1.9,8.3-.8,18.9-.3,26.4,1.2,3.4.7,9.8,2.6,12.2,3.7,2.3,1,2.4,1,2.4.3h0ZM534.1,476.5c2.4-3.3,4.2-11,3.1-13.1-.5-1-2.3-1.4-6.5-1.4s-9,.4-10.9.8c-.9.2-2.1,4-1.6,4.9.4.7,5.5,5.2,7.4,6.5,2.6,1.7,5.5,3.2,6.6,3.2s1.3-.2,1.8-1h.1ZM622.6,473.7c2.8-1.3,5.9-3.4,7-4.7.6-.6.5-.7-1-2.2-2.8-2.8-4-6.1-3.1-8.4.8-1.9,1.6-2.7,5.4-4.9,1.9-1.1,3.4-2,3.4-2.2s-1.6-.9-3.5-1.7c-5-2.1-13.9-6.7-15.4-7.9-2.3-1.9-3.7-6.1-3.7-11s0-1.6-3-4.3c-1.7-1.5-4.1-3.8-5.4-5l-2.4-2.3-.6,2.8c-3.4,17.3-2.1,32.9,3.6,44,2.5,4.8,6,7.9,10.4,9,2.8.7,5,.4,8.3-1.2h0ZM487.8,474.4c2-.4,4-.8,4.5-1.1.5-.2,1.6-1.3,2.4-2.4,1.2-1.4,2.2-2.3,3.7-3.1,2.5-1.3,4.4-1.4,10.9-.5,2.3.3,4.3.5,4.4.3.2-.2,0-1.4-1.1-5.1-.8-2.9-2.8-6.5-4.5-8-.8-.7-2.3-1.7-3.4-2.1-1.7-.6-2.2-.7-3.8-.4-1,.2-2.5.7-3.3,1.1-3.4,1.7-7.5,6.7-10.5,12.9-1.3,2.6-3.5,8.1-3.5,8.7s0,.4,4.1-.4h0ZM604.5,471.8c-6.2-8-8.7-17.2-8.7-31.7s.6-13.7,2-20.3c.7-3.2.7-3.8.3-4.4s-.4-.7.4-1.2c.7-.4,1.8-2.8,1.5-3.1-.2-.1-10.9-2.5-20.5-4.6-38.8-8.3-83.1-16.1-123.6-21.8-22.3-3.1-29.4-3.6-33.7-2.3-4.1,1.3-6.7,3.7-7.3,6.9-.5,3.1,1.8,8.8,5.8,14.1,2.3,3.1,8.8,10.1,14.3,15.3l3.3,3.2,16.9,5.7c17.3,5.8,42.1,14,61.4,20.2,13.1,4.3,39,12.1,45.3,13.7,2.5.6,10.5,2.7,17.7,4.6,12.6,3.3,24.7,6.5,25.3,6.5s0-.4-.4-.9h0ZM745.7,469.2c5.9-.8,10.4-2.9,13.5-6.2.8-.9,1.5-1.9,1.5-2.3,0-1.7-3-4-10.3-8-9.3-5-19.1-9.1-33.8-14.2-15.3-5.3-16.2-5.8-22.3-11.9-3.2-3.3-4.5-4.8-5.8-7.1-1.5-2.8-1.8-3-3.2-3.5-.9-.3-1.6-.5-1.7-.4,0,0,.4,1.8,1.1,4,2.1,6.9,2.4,12.9.9,19.2-1.5,6.1-3.7,10.5-8.8,17.5-1.6,2.2-2.9,4.2-2.8,4.4.4,1.1,24.2,5.8,37.7,7.4,16.2,1.9,26.8,2.3,34.1,1.3h0v-.2ZM523.9,460.7c2-.3,3.9-.8,4.2-1.1.6-.5,2-3.1,1.8-3.3,0,0-1.7-.7-3.6-1.3l-3.5-1.2-.5,1c-.8,1.6-2.6,6.5-2.3,6.5s1.9-.3,3.9-.6h0ZM1055.8,455.8c-.4-.8-1.5-2.7-2.5-4.2-3.9-5.9-6.9-8.2-11-8.2s-5.7,1.1-8.8,4.1c-1.7,1.6-2.5,2.6-2.3,2.8.2.2,3.8,1.2,8.1,2.3,4.2,1.1,9.6,2.5,11.8,3.3q5.5,1.8,4.6,0h.1ZM659.3,454.8c1.7-1.8,5.4-7.4,7.3-10.9,4.1-7.6,5.6-18.1,3.6-25.8-1.6-6.4-2.1-7-7.7-8.7-2.6-.8-9.8-2.6-10.3-2.6s-.2,3-.2,6.6c0,11.8-2,22.9-6,33.9-.7,2-1.4,3.8-1.4,4.1,0,.5,1.4,1.2,8.1,3.5,2.1.7,4.1,1.3,4.5,1.3s1.3-.6,2.1-1.5h0ZM642.3,449.1c1.3-2.9,3.4-9.8,4.4-14,1.9-7.9,2.2-11,2.2-20.1s0-8.6-.2-8.7c-.7-.7-12.3-2.3-16.9-2.3s-3.9,0-5.8,1c-2.4,1.2-6.7,5.3-6.7,6.4s.5.3,2.7-1.8c3.8-3.7,6-4.2,8.2-2s1.8,3.3,2,7.6c.4,8.3-1.9,16.1-6,20.1-2.1,2-5.4,3.9-6.9,3.9s-3.1-1.5-3.8-5.2c-.6-3.3-1.2-3.4-.9-.1.4,5.1,1.8,6.5,11.9,10.8,6.8,2.9,14.4,6.1,14.9,6.2,0,0,.6-.7,1-1.6h0v-.2ZM622.5,430.9c1.4-1.5,2.9-4.8,3.4-8,.7-3.9.8-8,.2-8.6-.7-.7-14-.6-18.4.2-7.7,1.3-7.8,1.5-2.5,6.6,5.5,5.3,10.1,8.6,14,10.2,2.1.8,2.2.8,3.3-.3h0ZM1159.5,426.3c-2.7-5.3-8.1-11.2-11.3-12.3-.7-.2-2.3-.4-3.8-.4-4.6,0-8.1,1.7-12.8,6.5l-2.7,2.7,1.3.3c2.4.5,29.8,4.9,29.9,4.9,0,0-.2-.7-.6-1.6h0ZM832.1,424.5c8.2-1.4,14.2-4.7,14.9-8.4.2-1,0-1.3-1.3-2.6-2.6-2.5-10-6.6-20.8-11.4-6.8-3.1-13.1-5.5-22.5-8.7-4.4-1.5-9.1-3.2-10.5-3.8-4.8-2-8.3-4.6-9.8-7.3-1.1-2-.8-2.9,1.7-5.4l1.5-1.6-3.4-1.1c-7.1-2.2-11.8-3.6-12-3.4,0,0,.2,1,.6,2,2.5,6.3,3.2,15,1.7,20.8-1.6,6.1-5.4,13.3-10,18.9-1.3,1.6-2.3,3.1-2.1,3.2.4.4,9.2,2.5,15.5,3.7,6.6,1.3,31.6,4.4,45,5.7,2.4.2,8.1,0,11.4-.6h0ZM696.9,422l1.6-1.8-3.7-1.2c-2-.7-3.8-1.2-4-1.2s0,.6.5,1.3c1.1,1.9,3.5,4.9,3.7,4.8,0,0,1-.9,1.9-1.9h0ZM708.6,415.1c7.6-3.6,13.7-6.9,13.5-7.3,0-.2-.8-.5-1.6-.8-2.5-.7-33.8-8.7-34.3-8.7-.8,0,.4,8,2.1,13.2l1,3.1,5.4,1.8c3.7,1.2,5.8,1.7,6.7,1.6.7,0,4-1.4,7.2-2.9h0ZM685.4,411.8c-.8-2.8-1.6-7-2-10.8l-.4-3.6-5.8-1.5c-6.5-1.7-29.4-7-29.5-6.9,0,0,.5,1.9,1.3,4.1.7,2.2,1.6,5.6,2,7.5s.7,3.6.8,3.6c0,0,3.6,1,8,2,7.4,1.8,25.6,6.9,25.9,7.2.4.4.3-.2,0-1.8h0l-.2.2ZM746.9,409c4.6-6,8.5-13.3,9.4-17.9,1.6-7.5,1.7-13.8.4-18.4-.5-1.7-1.3-3.9-1.7-4.9-.7-1.5-1-1.8-2.1-2.1-3.1-.9-13.6-3.5-14-3.5s-.5.7-.5,3.5c0,8-1.6,18.9-3.8,26.7-1.4,4.8-3.6,11-4.6,13q-.6,1.1.4,1.5c4,1.6,13.4,4.7,14,4.7s1.5-1.1,2.6-2.5h-.1ZM728.7,401.1c4.5-11.4,6.9-23.9,6.9-35.1s0-4.7-1.5-5c-4.8-1-9.7-1.6-13.7-1.8-5.3-.2-6.5,0-9.8,2.2-1.7,1.1-4.5,4.2-4.5,4.9s1,.2,2.2-1.3c3.5-4.2,7.7-4.7,9.4-1.2,2.6,5.2,1.2,18-2.7,24-2.4,3.6-7.7,7-10.1,6.4-1.4-.3-1.9-1.5-3.1-6.8,0-.5-.4-.9-.6-.9-.6,0,0,3.8.8,5.9,1,2.3,2,3.1,7.1,5.5,4.4,2.2,16.8,7.4,17.5,7.5.2,0,1.2-1.9,2.1-4.4h0ZM396.3,402.2c2.1-2.6,3.8-6.1,4.8-9.6,1-3.9,1-10.7,0-15.4-.8-3.6-2.1-7.5-2.8-8.3-1-1.1-16,.4-21.1,2.1-13.9,4.8-15.7,11.7-5.4,20.8,4.1,3.6,12.2,8.4,19.4,11.6,1.4.6,2.8,1.1,3.1,1,.3,0,1.2-1,2.2-2.1h-.2ZM648.4,403.4c0-.2-.2-1.6-.5-3.1-.7-3.6-2-7.9-3.2-10.3l-1-1.9-9-2c-5-1.1-10.2-2.2-11.7-2.5l-2.7-.6-2.1,2c-3.8,3.8-10.4,12.9-9.7,13.6,0,.1,3.7.9,7.8,1.6,7.1,1.3,7.9,1.4,13.6,1.4s10.2.4,15.6,1.6c2.6.6,2.9.6,2.9.2h0ZM606.8,395.6c2.1-3.7,5.1-8,7.7-10.8l2.4-2.6-1.8-.4c-28.3-5.9-43.6-8.8-57.6-11.1-23.4-3.8-48.4-6.9-67.2-8.6-8.1-.7-39.8-1.7-40.9-1.3-.4.1-.7,1.4-1.2,4.5l-.6,4.3h-1c-.5,0-5.2-.3-10.3-.7-5.2-.4-14.2-.8-20.2-1-15-.4-15.1-.4-15.3.2-.5,1.3.5,1.5,9.4,2,4.7.3,11.4.6,14.9.9,7.2.4,44.7,4.1,53,5.2,35.5,4.6,64.7,9.5,110.2,18.5,8.5,1.7,15.9,3.1,16.4,3.1.8,0,1.1-.3,2.2-2.3h-.1ZM700.8,395.4c-1.2-2.3-2-5.1-2.4-8.7q-.2-2.1-2.7-4.3c-1.4-1.2-3.8-3.4-5.4-4.9l-2.9-2.7-.2,1.2c-.4,1.9-1.2,9.7-1.5,13.9l-.2,3.8,7.7,1.9c4.2,1,7.9,1.9,8.2,1.9.5,0,.3-.4-.6-2.1h0ZM709.3,385.8c2-2.7,4.3-9.2,4.3-12.4s-.6-3.5-2.2-4c-2.2-.6-12.4-.5-16.2.2-4.1.7-7.1,1.7-7.2,2.2-.2.6,7.3,8,10.6,10.4s7.7,4.7,8.9,4.7,1.2-.3,1.8-1.1h0ZM638.9,382c-1-1.1-4.1-2.6-6.2-3-2.1-.4-6.9.2-6.2.8,0,.1,12.1,2.9,12.8,2.9s0-.3-.4-.7h0ZM692.9,368.2c2.1-.5,5-1,6.4-1.1s2.8-.3,2.9-.4c.2-.1.9-1.1,1.7-2.3,5.6-8.3,12.4-9.8,28.9-6.2l2.2.5-.2-2.5c-.5-5.6-2.4-12.2-4.9-16.6-2.6-4.7-7.3-8.2-11.4-8.5-9.5-.9-21.5,12.3-27.4,30.1-1.5,4.5-2.4,7.9-2.1,7.9s1.9-.4,4-.9h-.1ZM445.8,363.7l.2-2.5h-2.2c-5,0-11.7,1.5-15.5,3.5-1.7.9-1.9,1.1-1.3,1.3.7.3,7.1.8,14.1,1.3,4.6.3,4.2.6,4.6-3.6h0ZM1070.1,316.2c.2-.4-.8-1.1-5.3-3.7-25.9-14.8-59.1-30.6-81.6-38.7-21.5-7.8-40.3-11.2-53.2-9.8-6,.7-11,2.7-13,5.4-1.3,1.7-1.4,3-.4,5.1,2.2,4.9,10.7,10.4,24.8,16.3,23.3,9.7,68,20,104,24,12.3,1.4,24.2,2,24.7,1.2h0v.2ZM568.3,346.6c3.3-1.9,8-1.5,10.8,1.2,1.6,1.6,2.4,2.9,2.7,5,.5,2.7-.4,5.5-2.1,7.6-4.4-1.9-10.3-8.1-11.4-13.8h0ZM668.1,267.8c-4.7-1-7.9-5.9-6.9-10.7.9-4.3,4.4-7.2,8.9-7.2,6.5,0,10.8,6.6,8.2,12.7-1.6,3.8-6,6.1-10.2,5.2ZM823.3,266c-7.6-3.6-6.9-14.6,1.2-16.9,6.9-2,13.2,4.4,11.2,11.2-1.5,5.3-7.5,8-12.4,5.7h0Z"/>
</svg>