<svg id="Calque_2" data-name="Calque 2" xmlns="http://www.w3.org/2000/svg" viewBox="0 0 562.87 522.24"><defs><style>.cls-1{fill:#040504;}.cls-2{fill:#009985;}.cls-3{fill:#a9aaaa;}.cls-4{fill:#7ec75b;}.cls-5{fill:#004940;}.cls-6{fill:#fac61c;}.cls-7{fill:#458129;}.cls-8{fill:#64a249;}.cls-9{fill:#b7ed65;}.cls-10{fill:#22642c;}</style></defs><title>logo EFREI 3D vector</title><path class="cls-1" d="M354.58,397.37l-22,25.41a4.76,4.76,0,0,0,1.39,1.81q29,31.14,58,62.22a7.21,7.21,0,0,1,2.15,5.49c-.18,21.4-.24,42.8-.35,64.2a7.24,7.24,0,0,1-.16,2.37H187.74V488.56H289.65c-.14-.33.06,0,.09-.25a.35.35,0,0,0-.06-.19.82.82,0,0,0-.09-.19.91.91,0,0,0-.13-.16l-.42-.46-58.69-63.54s-.09-.1-.13-.16a1.42,1.42,0,0,1-.11-.18A1.41,1.41,0,0,0,230,423l62.67-67.15c-.08-.19-.1-.25-.13-.31a.31.31,0,0,0-.12-.16h-1.2l-101.92.42h-.2l-.32-.11v-70c1.56-.49,47-.51,68.55-.31,22.78.22,45.57.17,68.36.2s45.7,0,68.38,0a3.37,3.37,0,0,1,.42,2.3q0,30.64.08,61.28a4.4,4.4,0,0,1-1.14,3.19c-4.77,5.43-9.46,10.92-14.19,16.38-.68.79-1.44,1.51-2.13,2.28a6.08,6.08,0,0,0-1.66,2.54,3.17,3.17,0,0,0,2.12-1,40,40,0,0,1,5.54-3.68,33.54,33.54,0,0,1,14.9-4.05,2.14,2.14,0,0,0,.62-.06,1.6,1.6,0,0,0,.45-.23V193.94c1.39.33,93.87,57.57,98.08,60.74.5,8.17,1.69,10.56,7,14.08.06.47-.32.72-.55,1-2.6,3.79-2.17,8,1.28,11a3.85,3.85,0,0,1,1.48,3c.33,5.21,3.82,8.85,9.17,9.65,1.49,3.61,3.88,6.45,8,7.26s7.33-.76,10.09-3.9c2.33,2.34,5,3.85,8.33,3.69a10.76,10.76,0,0,0,7.87-4.22c4.74,3,9.16,2.56,13.44-1.14l17.92,11.27a45.45,45.45,0,0,0,7.11-7.75c5.21-7.53,10.69-14.86,15.72-22.52,4.22-6.44,8.38-12.9,12.17-19.63a168.25,168.25,0,0,0,8.34-17.2,50.74,50.74,0,0,0,3.93-12.44c-.09-.13-.15-.3-.25-.33-3.82-1.24-7.59-2.68-11.72-2.4a14.67,14.67,0,0,0-3.1.17c-.66.2-1.17-.3-1.66-.59-3.86,2.82-8,4.85-13.1,4.7-1.85,4.74-6.1,7.2-10.61,9.28a10,10,0,0,1-6.1.87c-2.48-.46-4.43-1.65-5.07-4.3a19.67,19.67,0,0,0-1.08-2.39l-5.3,1.63c.1,1.9.57,3.64.17,5.46a11.72,11.72,0,0,1-3.76,6.95,34.59,34.59,0,0,1-16.18,7.59,9.35,9.35,0,0,1-5.66-1c-.82-.36-1.61-.8-2.49-1.25a14.79,14.79,0,0,0-3.05,2.75,12.27,12.27,0,0,1-6,3.53,28.52,28.52,0,0,1-8.62,1.06,13.63,13.63,0,0,1-8.14-3.3,30.64,30.64,0,0,1-6.24-6.42c-3.39.21-6.77.52-10-.51-8-2.56-11.88-7.16-10.87-15-1.5-.75-3-1.57-4.57-2.26a46.14,46.14,0,0,1-4.19-2.3,23.33,23.33,0,0,1-8-8.28,33,33,0,0,1-4.43-12.12,164.39,164.39,0,0,1-2.06-17.57c-.06-1-.18-1.94-.3-2.9a52.26,52.26,0,0,1-.56-6c0-6.88-.28-13.74-.68-20.61-.29-5-.64-10,.56-14.93.14-.54-.18-1-.37-1.37q-2-4.68-4.1-9.33c-1-2.22-2.17-4.43-1.83-6.95.62-4.49,1.69-8.84,4.22-12.72a79.85,79.85,0,0,1,5-6.88c2.23-2.75,6.83-3.52,9.52-1.35,1.51,1.21,3.09,2.35,4.6,3.57a9,9,0,0,0,5,2.22c4.09.29,8.18.51,12.28.42a9.9,9.9,0,0,0,4.4-1.12,195.34,195.34,0,0,1,22.7-9.79,7.91,7.91,0,0,0,1.48-.75c4.8-3,10.16-4.38,15.63-5.41a5.17,5.17,0,0,0,4.1-3.34,83.47,83.47,0,0,0,4.37-12.19,63.25,63.25,0,0,0,1.08-7c.48-3.08.79-6.18,1.53-9.23a20.58,20.58,0,0,1,8.36-12.28,25.73,25.73,0,0,1,11.26-4,34.66,34.66,0,0,1,3.94-.31c8.17-.21,15.71,2.25,23.07,5.44,6.8,3,13.46,6.23,20.43,8.78a29.44,29.44,0,0,0,17,1c7.24-1.61,14.45-3.48,21.85-4.23,4.82-.5,9.69-1,14.5.14,1.21.32,2.4.69,3.57,1.12,3.3,1.17,4.9,3.7,5.41,7,1.05,6.71.31,13.44.05,20.16a5.58,5.58,0,0,1-.48,1.8c-1.17,3.11-2.12,6.3-3.24,9.43a23,23,0,0,0-1,13.1c.39,1.69.77,3.38,1.06,5.09.61,3.58,2.63,6.53,4.17,9.7,4,8.36,7.91,16.81,12.26,25a38.27,38.27,0,0,1,4.22,13.29A12.06,12.06,0,0,1,700,172.6c-1.9,3.62-3.53,7.38-5.65,10.9a103.67,103.67,0,0,1-6.8,9.71c-1.81,2.36-3.64,4.72-5.5,7a3,3,0,0,0-.44,2.57c.85,5.2,1.63,10.42,2.64,15.59a172.71,172.71,0,0,1,2.79,23.33c.36,6.45.64,12.9.78,19.36,0,2.43.27,4.85.44,7.28a3.31,3.31,0,0,0,.46,1.8,15.2,15.2,0,0,1,2.12,4.52c1.74-.68,3.48-1.2,5.08-2a5.13,5.13,0,0,1,6.34,2,12.84,12.84,0,0,1,1.27,3.07A191.25,191.25,0,0,1,708.75,300c0,.06.08.1.13.17.58.22.67-.35.85-.63a21.13,21.13,0,0,1,7.35-6.65c2.33-1.36,6.58-1.67,9.32.77a23.15,23.15,0,0,1,7.42,12,5.41,5.41,0,0,0,.69,2c3.87-.76,7.48.41,11,1.79a5.86,5.86,0,0,1,3.47,3.72,25.45,25.45,0,0,1,1.51,11.43,59.28,59.28,0,0,1-7.1,21.37,106.85,106.85,0,0,0-4.87,10.12,9.61,9.61,0,0,1-.5,1.14,2.09,2.09,0,0,1-2.34,1.34,2.18,2.18,0,0,1-1.93-1.92c-.19-1.3-.35-2.6-.59-3.9a38.07,38.07,0,0,0-3.82-11.15,3.3,3.3,0,0,0-.46-.54c-1.18.93-1.77,2.29-2.73,3.35-.41.46-.71,1-1.09,1.52a2.08,2.08,0,0,1-2.37.89,2.22,2.22,0,0,1-1.69-1.91c-.3-1.84-.17-3.75-.73-5.56-.12-.39-.25-.78-.39-1.25-.64.12-.75.58-1,1a23.72,23.72,0,0,1-6.35,8.4c-2.4,1.9-4.3,4.32-6.49,6.45a32.94,32.94,0,0,1-4.81,4,10,10,0,0,1-5.28,1.57c-1,5.85-.75,11.89-2.62,17.74l5.52,3.56L694.05,384a118.35,118.35,0,0,0,14.19,17,48.94,48.94,0,0,1,4.46,4.65,23.44,23.44,0,0,1,4.79,18.69c-.94,6.13-2.67,12-4.14,18a31.26,31.26,0,0,1-1.55,4.07c-1.83,4.57-3.68,9.13-5.51,13.7a39.65,39.65,0,0,1-4.24,8.08c-1.65,2.41-3.26,4.84-4.87,7.27a4.77,4.77,0,0,1-4,2.21c-4.71.39-9.41.85-14.09,1.46a56.83,56.83,0,0,0-6.7,1.49c-5.78,1.51-11.4,3.44-16.42,6.81a31.23,31.23,0,0,1-5.28,2.92,2.49,2.49,0,0,0-1.68,3c.68,4.2,1.58,8.29,5,11.35,1.44,1.29,2.52,3,3.85,4.37,2.3,2.46,5.18,4.14,8,5.88.23-.12.48-.18.58-.33,1.53-2.24,3.5-2.53,6-1.74a62.21,62.21,0,0,1,10.38,4.71c.37.19.72.39,1.14.62a12.6,12.6,0,0,0,2-2.7,13.55,13.55,0,0,1,4.63-4.08,5.52,5.52,0,0,1,6.41.41,16.08,16.08,0,0,1,5.23,6.36c2.38,4.7,4.68,9.44,7.19,14.08a45.46,45.46,0,0,0,6.69,9.24,2.33,2.33,0,0,1-1.57,4.21c-3.38.41-6.75.84-10.12,1.26a1.72,1.72,0,0,0-1,.34,13.86,13.86,0,0,1,.26,3.46,2.84,2.84,0,0,1-2.67,3h-.12a12.68,12.68,0,0,1-4.93-.56c-3.28-.88-6.54-1.79-9.82-2.68a2.76,2.76,0,0,0-2-.06,7.88,7.88,0,0,1,0,3.8c-.37,1.5-.9,2-2.38,2.15a28.28,28.28,0,0,1-13.24-2c-4.18-1.65-8.37-3.33-11.79-6.29a1.38,1.38,0,0,0-.6,1,6.82,6.82,0,0,1-7.89,5.09c-4.26-.58-7.85-2.68-11.39-4.85a4.13,4.13,0,0,1-2-4.11,2.11,2.11,0,0,0-.77-2c-2.44-2.19-3.84-5-5.1-8-.82-1.91-1.66-3.81-2.55-5.69-.77-1.64-1.33-1.83-3.14-1.64-4,.43-7.3,2.46-10.51,4.65,1,3.08,2.93,5.68,4.05,8.67a96.71,96.71,0,0,1,4.09,13.5,20.8,20.8,0,0,1,0,6,2.29,2.29,0,0,1-2.41,2.13,20,20,0,0,1-3.94-.21,50.55,50.55,0,0,0-9.83-.62,21.08,21.08,0,0,1,.53,3.94c.21,1.89-.75,2.92-2.65,2.78a10.83,10.83,0,0,1-2.23-.48A102.1,102.1,0,0,1,584.26,563c-1.89-.86-3.61-2.1-5.69-2.51-2.35-.47-4.73-.88-7.2-1.34v5.58c0,2.55-.63,3.1-3.2,3.25-2.91.18-5.81.35-8.73.33a19.71,19.71,0,0,1-12.62-4c-1.62-1.29-3.37-2.45-4.51-4.19-5,.42-7.27-.89-8.64-5.1-2.3.31-4.19,1.6-6.14,2.71-.73.41-1.39.93-2.14,1.28-1.72.79-2.95.31-3.66-1.48a9.53,9.53,0,0,1-.14-6.91,35.67,35.67,0,0,1,2.21-4.93c2.53-4.62,5.17-9.18,8-13.61,1.61-2.49,2.88-5.2,4.35-7.89-1.46-1.42-3-2.64-3.83-4.43a4.67,4.67,0,0,1,.08-4.9c2.84-4.62,6.64-8.36,10.61-12,4.32-3.91,9.06-7.35,13.25-11.42a177.58,177.58,0,0,0,19.1-21.72,10.68,10.68,0,0,1,1.87-1.93c.87-.7,1.73-1.41,2.58-2.12.09-.08.12-.24.19-.37-.07-.59-.48-.76-1-.85-2.94-.49-5.88-1-8.82-1.51-1-.18-1.57.43-2.26.86l-33.78,21.41L401.05,569.64c-.58.37-1.17.71-1.87,1.14a3.27,3.27,0,0,1-.25-2q.12-46,.24-91.92a1.48,1.48,0,0,0,0-.42c-.11-1.38.13-2.92-.43-4.08s-2.42-1-3.69-1.44a156,156,0,0,1-16-5.93c-3.86-1.66-7.11-4.29-10.46-6.76a72.9,72.9,0,0,1-12.29-12.1,18.74,18.74,0,0,1-2.89-5c-3-7.16-3.55-14.66-3.18-22.29a61.75,61.75,0,0,1,4.44-20.23c.12-.24.26-.48.4-.71a3.06,3.06,0,0,0,1-2.43ZM492.24,118.14h-5.76a51.07,51.07,0,0,0,2.24,5.21,44.54,44.54,0,0,1,2.66,9.73c-.39.71-.4,1.61-1.2,2.13a2.6,2.6,0,0,1-3.54-1,2.85,2.85,0,0,1-.25-.63c-1.66-4.75-4.4-8.94-6.87-13.28a13.4,13.4,0,0,0-6.75-5.91c-1.79-.75-2.71-.64-3.78.89a56.53,56.53,0,0,0-3.05,5c-1.38,2.53-1.82,5.37-2.42,8.14a3,3,0,0,0,.64,3c.64-.33.71-.94,1-1.41.51-1,.9-2,1.45-3,1.24-2.21,3.43-2.2,4.67,0a14.63,14.63,0,0,1,1.34,3,60.1,60.1,0,0,0,3.32,8.73,6.41,6.41,0,0,1,.45,1.17c.17.63.17,1.26-.55,1.6s-1.17,0-1.54-.63a34.37,34.37,0,0,1-2-3.16,5.92,5.92,0,0,0-2.62-2.86c-1.85-1-2.14-.91-3.75.84a58.87,58.87,0,0,0,3.78,8.23,1.7,1.7,0,0,1,.27,1.55,27.61,27.61,0,0,0-.83,7.84c-.08,4.79.2,9.57.51,14.35.36,5.34,0,10.7.42,16,.21,2.63.59,5.24.79,7.87q.57,7.78,1.81,15.49a28.64,28.64,0,0,0,4.51,12,17.93,17.93,0,0,0,6,6c1.28.7,2.54,1.42,3.84,2.09a51.29,51.29,0,0,1,5.19,2.6,25.24,25.24,0,0,0,11.93,3.89,102.73,102.73,0,0,1,10.62,1.78A89.14,89.14,0,0,0,528,237.11c4.2.25,8.26-.87,12.38-1.33,5.52-.62,10.83-2.4,16.31-3.26A100.52,100.52,0,0,0,570.14,229a106.85,106.85,0,0,0,13.94-5.46c5.1-2.36,9.84-5.41,14.73-8.16a107.7,107.7,0,0,0,9.57-5.89c5.1-3.61,10.51-6.74,15.81-10,4.41-2.75,8.95-5.31,13.12-8.42,2-1.49,3.91-3.11,5.85-4.67a8.66,8.66,0,0,1,1.25.09,1.93,1.93,0,0,1,1.72,2.12,1.84,1.84,0,0,1-.32.88,3.92,3.92,0,0,1-.88,1.14c-1,.86-2,1.68-3,2.51a78.54,78.54,0,0,1-9.26,6.29c-3.84,2.32-7.66,4.71-11.47,7.12a69.67,69.67,0,0,0-6.38,4.08c1,1.18.58,2.33.19,3.55-.56,1.77-.93,3.59-1.44,5.63,3.07.07,6-.32,8.82.36a12.07,12.07,0,0,0,2.65.58,38.13,38.13,0,0,1,5.79,2.2c3.81,2.17,7.89,3.68,11.84,5.51a5.78,5.78,0,0,0,6.71-.85,38.21,38.21,0,0,1,4.08-2.85,40.28,40.28,0,0,0,10.24-9.89.46.46,0,0,0,.32-.5h0c4-3.11,6.91-7.17,10.1-11s6.16-8.2,9.38-12.19a110.81,110.81,0,0,0,6.93-9.6c2.19-3.4,3.62-7.18,5.58-10.69,1.23-2.21,1.2-4.6.79-7.08a31,31,0,0,0-3.19-9.19c-4.56-8.74-8.6-17.72-12.67-26.69-2.08-4.58-4.4-9-5.12-14.19-.89-6.38-.93-12.49,1.72-18.51A85.48,85.48,0,0,0,680.3,87a9.64,9.64,0,0,0,.41-3.07c0-3.66-.14-7.33,0-11a18.61,18.61,0,0,0-.49-4.33,5.24,5.24,0,0,0-4.21-4.32,30.35,30.35,0,0,0-10.95-.64c-1.89.18-3.92-.14-5.72.82a27.4,27.4,0,0,0-7.14,1l-9.09,2c-4.42.62-8.79,1.74-13.31,1.45h-.78a70.22,70.22,0,0,1-11.3-3c-5.67-2.83-11.59-5.12-17.43-7.57a3.07,3.07,0,0,0-1.24-.71,56.49,56.49,0,0,0-13.7-4.16,28.89,28.89,0,0,0-15.76,1.18,15.38,15.38,0,0,0-9.44,9c-1.52,3.71-2,7.66-2.46,11.57a67.79,67.79,0,0,1-6,20.91,7.8,7.8,0,0,1-6,4.81,48.78,48.78,0,0,0-13.7,4.15c-5,2.6-10.33,4.39-15.52,6.55a53.55,53.55,0,0,0-8.07,3.81,20,20,0,0,1-6.54,2.59ZM702.79,331.48a5,5,0,0,1-1.54-3.07,17.14,17.14,0,0,0-2.33-5.73,3.12,3.12,0,0,0-2.23-1.88,5.11,5.11,0,0,0-.2,2.16c-.14,3.66,0,7.32-.26,11a39.1,39.1,0,0,0,.18,9.3,3.56,3.56,0,0,0,0,2.53c-.31,3,.17,6-.07,9a3.67,3.67,0,0,0,3-.84,27.08,27.08,0,0,0,3.18-2.67c2.23-2.27,4.36-4.67,6.78-6.71a21.75,21.75,0,0,0,6.21-8.67c1.24-1.11,1.17-2.93,2.32-4.09a77.08,77.08,0,0,0-4-8.48c-.46-.9-.66-2-1.56-2.61l-.14-.77a.38.38,0,0,0-.09-.54l-.06,0a18.73,18.73,0,0,0-.54-2.42,2.21,2.21,0,0,1,.58-2.64,2.7,2.7,0,0,1,2.91-.44,2.15,2.15,0,0,1,1.26,2.4,5.37,5.37,0,0,0,.71,3.19c.63,1.38,1.35,2.73,2,4.09a57,57,0,0,1,4.18,10.18c.45,1.62,1,3.21,1.54,4.79a1.27,1.27,0,0,0,1-.84A42.05,42.05,0,0,0,730.53,326a29.67,29.67,0,0,0,.81-9.71,57.9,57.9,0,0,0-2-10.17,16.29,16.29,0,0,0-5.73-8.91c-1.65-1.22-3.11-1.45-4.73-.42a17.21,17.21,0,0,0-6.27,6.24c-.71,1.33-1.43,2.69-2.25,3.94a3.51,3.51,0,0,0-.69,2.27,44.93,44.93,0,0,1-2.13,17.23,11.33,11.33,0,0,0-1.46,2.72C705.29,331.37,705.1,331.48,702.79,331.48ZM689.41,518.61l-2.15,2.88c4.29,7.14,9.39,13.57,12.62,21.13a14.27,14.27,0,0,0,5.37-.19c1.73.39,3.32-.3,4.92-.51a1.08,1.08,0,0,0-.34-.91,51.72,51.72,0,0,1-5.57-9c-2.13-4-4-8.18-6.17-12.21-1.07-2-2.31-4-4.62-4.78C691.64,515.75,690,516.62,689.41,518.61ZM679,214.81a39.31,39.31,0,0,0-1.38-8.47l-11,12.1c-.05.05-.07.12-.12.17-2.75,2.84-5.19,6-8.47,8.28-3,2.09-6,4.14-9.08,6.21a.54.54,0,0,0-.33.47l-1.65.12a.79.79,0,0,0-.88.19c-4.78-.65-8.88-3.29-13.45-4.76-.43,1.59-.74,3.09-1.22,4.52a163.8,163.8,0,0,1-17.56,35.58c-5.21,8.1-10.26,16.35-16.37,23.86a16.19,16.19,0,0,0-1.28,1.9,65.75,65.75,0,0,1-7.7,10.39c-1,1.2-2.19,2.31-3.29,3.46,1.65,1.54,51.12,32.6,52.43,32.94a.89.89,0,0,0-.06-.39,45.54,45.54,0,0,1-5.25-13.31,2.85,2.85,0,0,0-.53-1.33c-2.38-2.54-3.62-5.75-5.24-8.72a74,74,0,0,1-5-11.41c-1.59-4.66-3.34-9.27-4.71-14a53.38,53.38,0,0,1-2.14-11,7.79,7.79,0,0,1,.44-3.28,2.06,2.06,0,0,1,2.28-1.41,1.79,1.79,0,0,1,1.78,1.71,15.83,15.83,0,0,1,.23,2.06,44.1,44.1,0,0,0,3,15.23c2.34,6.37,4.15,13,7.46,18.95,1.74,3.15,3,6.6,5.52,9.27a5.52,5.52,0,0,1,1.2,2.62,62,62,0,0,0,1.92,6.58c1.69,4.77,4.74,8.59,8.06,12.27a4.77,4.77,0,0,0,1.74,1.1c1.09.45,2.18.9,3.28,1.33a2.31,2.31,0,0,0,2.69-.41,17.86,17.86,0,0,0,3.73-4.26c1.66-3,3.58-5.78,5.46-8.61,3.1-4.7,5.86-9.6,8.53-14.54,1.87-3.45,3.17-7.22,4.82-11.05-2.74-2.05-3.77-5.14-5-8.2-1.95-5-1.47-9.91.32-14.81a3.7,3.7,0,0,1,1-1.32,2.16,2.16,0,0,1,3.54,2,5.76,5.76,0,0,1-.39,1,15.67,15.67,0,0,0-.45,11.37,2.29,2.29,0,0,1,.18.6,8.27,8.27,0,0,0,2.8,5.21c2.8,2.57,4,5.92,4.82,9.49a28,28,0,0,1,1,7.05,4.53,4.53,0,0,0,2.11-1.6,26.09,26.09,0,0,0,4.29-7.33c.6-1.7,1.16-3.42,1.84-5.08a10.16,10.16,0,0,0-.67-9.22,30.7,30.7,0,0,1-3.15-9.19c-.74-3.82-1.46-7.64-2-11.49a13,13,0,0,0-3.17-6.65c-1.63-1.95-3.34-2.14-5.14-.3a31.07,31.07,0,0,0-5.49,7.3c-1.52,3-3.08,5.89-4.63,8.84a21.52,21.52,0,0,1-7,7.89A54,54,0,0,0,645.12,313c-1.28,2.3-2.69,4.53-4,6.79-.87,1.45-2.35,1.77-3.48.75a2.21,2.21,0,0,1-.4-2.85c.55-1.11,1.23-2.17,1.87-3.24,3.08-5.11,6-10.32,10.15-14.71a1.68,1.68,0,0,0,.21-.58c-.66-1.23-1.32-2.44-2-3.66-1.88-3.46-3.12-7.27-5.71-10.35a3.88,3.88,0,0,1-1-2.68c.21-3.46.13-7,1.36-10.28a6,6,0,0,1,1.07-2,2.34,2.34,0,0,1,3.28-.33,2.3,2.3,0,0,1,.72,1,5.06,5.06,0,0,1,.26,3.07c-.39,1.9-.63,3.83-1.08,5.72a3.51,3.51,0,0,0,.36,2.56c1.45,2.85,3,5.64,4.22,8.59a21.4,21.4,0,0,0,2.52,4.72c2.47-2.26,5.33-3.87,7.71-6.12,3-2.83,4.73-6.52,6.43-10.13a47.93,47.93,0,0,1,7.78-11.5,7.44,7.44,0,0,1,6.52-2.57c.52.05,1.09.28,1.59-.15a5.93,5.93,0,0,0,.06-2.06c-.22-6.87-.42-13.74-.82-20.6a152.74,152.74,0,0,0-3.13-24.74C679.66,216.63,678.87,215.81,679,214.81Zm-7.51,305.74c-.92,1.29-1,2.17-.21,3.06a43.27,43.27,0,0,1,8.78,16,48.66,48.66,0,0,1,1.24,5c3.12,1.16,6.28,1.87,9.38,2.78a4.29,4.29,0,0,0,1.24,0,25.22,25.22,0,0,0,6.19,1.67,30.31,30.31,0,0,0-1.86-5.46c-3-6.74-7.46-12.63-11.39-18.82a7.55,7.55,0,0,0-3.37-3c-1.77-.79-3.42-1.84-5.15-2.71a11.67,11.67,0,0,0-3.71-1.36c-.48,1-1.42,1.66-1.11,2.84ZM664,527.9c-2.7,4.23-4.37,8.94-6.22,13.56a1.8,1.8,0,0,0,.59,2.18,20.66,20.66,0,0,0,6.28,4.36c2.77,1.23,5.46,2.7,8.51,3.22a13.16,13.16,0,0,0,5.4.94,6.61,6.61,0,0,0,0-3,49.76,49.76,0,0,0-8.1-20.79,12.34,12.34,0,0,0-3.77-3.67C665.79,525.84,664.56,526.56,664,527.9Zm-68-.42a26.33,26.33,0,0,0-3.14,3.53l8.78,25.86a62.45,62.45,0,0,0,9.73,1,14.16,14.16,0,0,0,5.3.44,8.19,8.19,0,0,0-.13-3,80.89,80.89,0,0,0-2.76-9.36,67.54,67.54,0,0,0-8.33-16.45,13.77,13.77,0,0,0-2.52-2.76c-3.07-2.71-4.3-2.56-6.9.74Zm138.6-199a62.77,62.77,0,0,1-3.75,8.82,5.25,5.25,0,0,1,2.51,2.54,2.65,2.65,0,0,0,.92,1.35c.82,2.38,1.63,4.76,2.55,7.44a40.9,40.9,0,0,0,2.7-4.9,56,56,0,0,0,6.28-17.36,22.94,22.94,0,0,0-.57-10.7c-.28-.92-.6-1.91-1.64-2.28-1.88-.67-3.7-1.53-5.78-1.54s-2.4.21-2.24,2.38a32.32,32.32,0,0,1,.31,5.38,78,78,0,0,1-1.26,8.89Zm-42.84,17.24q.08-12.18.13-24.35a.38.38,0,0,0-.33-.42c-.36.15-.48.5-.69.76a33.82,33.82,0,0,1-7.58,6.74c-2,1.38-4,.1-3.74-2.36a19.39,19.39,0,0,1,.3-3.72c.68-2.4-.12-4.58-.65-6.84-.73.16-.78.74-.92,1.15-1.63,4.6-4.31,8.67-6.67,12.89-2.47,4.42-5.35,8.59-8,12.88a33.26,33.26,0,0,0-3.47,6.12l-.85,1.24a21.29,21.29,0,0,1-4,3.2c2,1.82,32.71,21,34.11,21.37a1.53,1.53,0,0,0,.39-.93,107.82,107.82,0,0,0,1.58-11.74,50.43,50.43,0,0,0,.44-9.75,39.14,39.14,0,0,0,0-6.22ZM550.6,532.46c-4.2,2-9.66,6.28-9.53,12.42a23.53,23.53,0,0,0,1.9,9.26,1.18,1.18,0,0,0,.84.81c1,.22,1.41,1,1.87,1.81,1.58,2.75,4.1,4.42,6.87,5.74,3.36,1.62,7,1.32,10.58,1.25a15.75,15.75,0,0,0,3.88-.2c-.21-3.78,0-7.5-.67-11.2-.74-4.09-1.88-8.1-2.49-12.22a30.65,30.65,0,0,0-1.56-6.67c-.57-1.5-1.54-2.65-3.1-2.69C556.23,530.68,553.25,530.85,550.6,532.46Zm27.95-4.16c-4.58,2-7.5,6-11.22,9a11.65,11.65,0,0,0,.46,3.53,77.15,77.15,0,0,0,3,12,2.67,2.67,0,0,0,2.12,2c1.35.25,2.7.57,4.07.72a20.48,20.48,0,0,1,7.61,2.52,39.36,39.36,0,0,0,7.66,3.09,19.45,19.45,0,0,0,7,1.94,1.66,1.66,0,0,0,0-1.56c-.84-2.56-1.7-5.11-2.58-7.67-1.88-5.44-3.37-11-5.58-16.32-.18-.45-.29-.93-.43-1.39a50.34,50.34,0,0,0-4.34-9.4,4.53,4.53,0,0,0-.67-.79,1.73,1.73,0,0,0-2.24-.42,24.51,24.51,0,0,0-4.86,2.75ZM684.69,390.19a3.41,3.41,0,0,0-1.89.78c-1.18.73-2.35,1.48-3.52,2.22q-13,8.25-26,16.51a46.58,46.58,0,0,0-6.18,4.14c3.41,9,7.65,17.62,9.25,27.41a28.43,28.43,0,0,0,3.92-4.63c1.51-2.32,3.13-4.58,4.57-6.95,2.3-3.79,5-7.32,7.29-11.13,2.4-4,4-8.4,6.16-12.49a92.93,92.93,0,0,0,5.06-11.41,20.25,20.25,0,0,0,1.57-4.27c.21-.19.41-.38.11-.65ZM647.63,427l-4.32-10.49c-2.09.61-67.1,41.8-68.28,43.25,1.46.27,2.87.55,4.28.78A75,75,0,0,0,589,462h2.1c4.42.35,8.84,1.1,13.21-.39a1.88,1.88,0,0,1,.62-.05,1.92,1.92,0,0,1,1.92,1.33,2.11,2.11,0,0,1-.59,2.46,3.82,3.82,0,0,1-1.69.79,25.47,25.47,0,0,1-8.25.76c-2.84-.24-5.67-.43-8.51-.64a3.56,3.56,0,0,0-2.41.38c-2.17,1.49-4.39,2.93-6,5.13-2,2.78-4.08,5.44-6.27,8a157.79,157.79,0,0,1-23,22.86,75.51,75.51,0,0,0-10.44,9.86,18.34,18.34,0,0,0-3.41,4.79,7.44,7.44,0,0,0,3.29,3.54c1.56,1.08,2.1,2.65,1.22,4.13-2,3.47-3.61,7.19-5.86,10.55a111.53,111.53,0,0,0-8.6,15.2c-.39.85-1,1.7-.57,2.93a33.48,33.48,0,0,1,8-3.43,2.26,2.26,0,0,1,2.58.73,16,16,0,0,1,1.78,3.27c.35.62.56,1.39,1.39,1.51.31-.37.13-.61,0-.86a22.69,22.69,0,0,1-2.08-7.13,21.52,21.52,0,0,1,1-8.8c.86-2.56,3-4.13,4.76-6,4-4.1,9-5.81,14.66-6a7.53,7.53,0,0,1,7.65,4.68c.22.48.27,1.06.93,1.45,3.68-3.53,7.32-7.18,12.25-9.25-.45-.79-.59-1.49-1.16-1.93-1.27-1-1.21-2.21-.88-3.57a18.37,18.37,0,0,1,2.83-6c1.1-1.64,2.16-3.31,3.24-5a16.19,16.19,0,0,0-5.41,5,2.14,2.14,0,0,1-3,1,2.21,2.21,0,0,1-.87-3,.16.16,0,0,0,0-.07A10,10,0,0,1,576,507q3.29-3,6.65-6A44.38,44.38,0,0,1,595,493c2-.83,3.93-1.77,5.85-2.72,5.48-2.71,11-5.25,16.72-7.46a29.9,29.9,0,0,0,3.39-1.59,51.6,51.6,0,0,1,8.84-4.15,8.86,8.86,0,0,0,3.73-2.12c3.48-3.29,7.15-6.35,10.3-10a102.75,102.75,0,0,0,8-10.08,5.36,5.36,0,0,0,1-2.7,33.4,33.4,0,0,0-.43-8.7,62.24,62.24,0,0,0-4.3-14.49,6,6,0,0,0-.54-1.94Zm52.63-28.37c-3.36-3.48-6.13-7.46-9.33-11.31a12.63,12.63,0,0,0-.57,1.17,148.42,148.42,0,0,1-9.35,22c-.31.62-.59,1.26-.84,1.9a62.4,62.4,0,0,1-6.63,12.24c-2.18,3.29-4.46,6.54-6.58,9.87a64.32,64.32,0,0,1-8.32,10.89A4.17,4.17,0,0,0,657.3,449a34.83,34.83,0,0,1,0,3.54,7.09,7.09,0,0,1-1.27,4.08c-4.15,6.57-9.44,12.16-14.93,17.57-1.72,1.7-3.65,3.19-5.39,4.9a7,7,0,0,1-3.38,2,26.12,26.12,0,0,0-5.38,2.17c-2.71,1.26-5.24,2.89-8.06,3.89a1.69,1.69,0,0,0-1.16,1.77,26.12,26.12,0,0,1-.09,3.54c-.75,5.56-1,11.16-1.69,16.72-.32,2.55-.23,5.12-.67,7.66-.52,3-.86,6-1.29,9,.84.67,1.52-.07,2.13-.37a21.67,21.67,0,0,1,7.83-1.93,5.74,5.74,0,0,1,5.67,2.77,29,29,0,0,1,1.92,3.92c1.76,4,3.24,8.14,6.69,11.13a3.41,3.41,0,0,1,1,4.52c3,1.6,5.73,3.35,9,4a4.44,4.44,0,0,0,1.45.09c1.07-.19,2-.66,2.17-1.9.25-1.95,1.17-3.69,1.7-5.54a97.68,97.68,0,0,1,5.05-12.75,22.15,22.15,0,0,1,5.69-7.85,4.21,4.21,0,0,0,1.52-2.16,7.77,7.77,0,0,1-1.19-.44,47.25,47.25,0,0,1-8.89-6.08c-1.55-1.43-2.68-3.2-4.2-4.61a19.59,19.59,0,0,1-5.93-9.83c-.15-.6-.37-1.19-.48-1.8a2.2,2.2,0,0,0-1.13-1.61c-1.47-.91-1.68-1.76-1-3.34a5.52,5.52,0,0,1,.77-1.46,13.32,13.32,0,0,1,5.3-4.25,39.15,39.15,0,0,0,6.31-3.16,60.17,60.17,0,0,1,16.73-6.69c6.56-1.61,13.26-2.15,19.94-2.84a2.49,2.49,0,0,0,2-1.11c1.8-2.64,3.69-5.2,5.23-8a112.41,112.41,0,0,0,9.32-21.76,131.6,131.6,0,0,0,4.65-20,18,18,0,0,0-2-11.25c-2.07-3.94-5.43-6.8-8.5-9.9A21.4,21.4,0,0,0,700.26,398.66Zm-301.44-4.61q0-11.34.08-22.7c0-.18-.16-.35-.26-.56A12.11,12.11,0,0,0,392,372c-2.2,1.19-4.34,2.47-6.55,3.64-4.07,2.18-7.51,5.23-11.13,8a44.41,44.41,0,0,0-15.84,24.55,55.55,55.55,0,0,0-.78,24.37,21.77,21.77,0,0,0,3.78,9.61,68.73,68.73,0,0,0,16.37,15,31.24,31.24,0,0,0,4.72,2.64,134.39,134.39,0,0,0,22.26,7.45,67.63,67.63,0,0,0,12.32,1.92,101.49,101.49,0,0,0,15-.42,169.77,169.77,0,0,0,30.53-5.13,17.31,17.31,0,0,0,5.33-2.26c-2.48-1.51-4.74-3-7.1-4.3-3.64-2-7.51-3.58-11.13-5.64-10.88-6.17-21-13.5-31.34-20.48a88.6,88.6,0,0,1-15.59-14,31.66,31.66,0,0,1-6.19-9.54,11.65,11.65,0,0,1-1.11-4.61,3.61,3.61,0,0,1,2.13-3.51,2.1,2.1,0,0,0,1.15-.76,23.12,23.12,0,0,0,0-4.48Zm287.79-13.19c.4-.16.92.12,1.34-.37L563,302.37a10.41,10.41,0,0,1-5.93,2.73,11.4,11.4,0,0,1-6.3-1.5c-5.76,6-11.8,5.21-16.7.08-2.81,3.4-6.27,5.51-10.85,4.8s-7.44-3.73-9.14-7.78l-.33-.11h-1.24a10.55,10.55,0,0,1-7.87-2.7,12.11,12.11,0,0,1-4.11-10.84,2.55,2.55,0,0,0-.83-2.55c-4.09-3.63-5.24-8.16-3.8-13.4a2.48,2.48,0,0,0,.25-1.77c-3.72-3-5-7.14-5.06-11.86a50.43,50.43,0,0,0-5.11-3.28L411.29,207.5,407.22,205c-.34-.2-.72-.49-1.05.06-.61.88-.32,1.89-.32,2.83V360.6c0,16.46.1,32.92.09,49.38a4.85,4.85,0,0,0,1.27,3.37,83.06,83.06,0,0,0,8.48,8.3,66.63,66.63,0,0,0,7.12,5.76c7.32,4.78,14.66,9.54,22,14.36a101.68,101.68,0,0,0,12.3,7c3.32,1.6,6.56,3.32,9.71,5.24,2.94,1.79,5.88,3.66,9.38,4.31,1.47.27,2.06,2,1.32,3.53a4.44,4.44,0,0,1-2,2.33,76.64,76.64,0,0,1-8.63,4.12c-8.56,3-17.51,4.17-26.43,5.4-3.37.47-6.76.69-10.15,1a80.76,80.76,0,0,1-19.71-.44c-1.41-.24-2.82-.81-4.29-.5-.08.15-.21.26-.22.39,0,.69-.08,1.38-.07,2.07.06,26.74-.15,53.48.11,80.22a.89.89,0,0,0,.1.16,1.92,1.92,0,0,0,.26.17c1.29-.18,1.82-1.56,2.92-2.09a3.09,3.09,0,0,0,1.94-.65L435,539.25l22.75-14.2,31.41-19.57q12.63-7.89,25.19-15.82L546,469.74c5.88-3.68,11.74-7.38,17.62-11,7.65-4.76,15.33-9.48,23-14.24,7.06-4.4,14.09-8.85,21.14-13.25l28.76-17.94,25.41-15.84q11.73-7.32,23.45-14.68c.65-.41,1.47-.67,1.89-1.43Zm-364.55,42a2.55,2.55,0,0,1,.92-1.49c2.43-2.67,4.84-5.36,7.32-8,11.51-12.24,22.77-24.72,34.13-37.09,7.71-8.39,15.62-16.58,23.12-25.15a4.25,4.25,0,0,0,1.21-3.15c-.07-5.41-.17-10.82-.26-16.23-.19-12.43-.11-24.87-.16-37.3,0-.68.19-1.4-.35-2.06a8.27,8.27,0,0,0-1-.11c-6.8-.08-13.6-.07-20.4-.25-11.32-.28-22.65.05-34-.16-11.94-.22-23.88.12-35.82-.24-11.66-.36-23.34,0-35-.18s-23.46.13-35.2-.23c-10.2-.32-20.42-.07-30.63-.06-.61,0-1.27-.18-1.86.41-.21,19.32-.57,38.72-.28,58.31h55.93c18.54,0,37-.54,55.81-.17-2.2,2.53-4.08,4.84-6.11,7-8.14,8.73-16.16,17.58-24.15,26.46-3.89,4.34-7.95,8.52-11.79,12.92-4.29,4.92-8.86,9.57-13.18,14.47-3.18,3.59-6.5,7.05-9.74,10.57a6.68,6.68,0,0,0-1.5,2.25c3.09,3.36,6.12,6.7,9.18,10l25.9,28q12,13,24.1,26,3,3.28,6,6.62c.29.31.84.6.39,1.37-36.74,0-73.57-.64-110.59-.2.23,19.16-.41,38-.36,56.82,3.14.59,191.11.81,193.67.26,0-.5.1-1,.11-1.58.29-9.65,0-19.3.35-29,.3-8.6.11-17.22.18-25.83a3.87,3.87,0,0,0-1.13-3c-3.44-3.63-6.81-7.32-10.21-11-8.49-9.18-17-18.39-25.47-27.53-8.9-9.55-17.66-19.22-26.73-28.62-.79-.9-1.62-1.92-2.4-2.81Zm287.19,104c2.51-12.45,2.51-25,4.41-37.67-3.6,1.68-6.83,3.1-10,4.68-1.85.93-3.94,1.5-5.51,2.89a69,69,0,0,0-7.34,7.06A112,112,0,0,0,582,516.7a3.65,3.65,0,0,0-.79,2.58c4.83-.31,8.48,1.44,10.72,6,.75-.8,1.32-1.38,1.87-2,3.15-3.46,6.44-3.63,10.41-1.19a30.11,30.11,0,0,1,5.06,4.8Zm94.51-204.3a1.3,1.3,0,0,0,.69-1c1.51-5.95,1.27-12,.46-18a164.78,164.78,0,0,0-5.48-24.3c-.28-1-.41-2.06-1.47-2.63-2,.87-4.25,1.31-6,2.72a11.34,11.34,0,0,0,.36,3.58c.75,4.94,1.7,9.78,4.11,14.29a12.5,12.5,0,0,1,1,10.07,10.67,10.67,0,0,0-.41,4.79,6.83,6.83,0,0,0,2.5,4.84,12.81,12.81,0,0,1,4.24,5.67ZM512,239.37c.15,6.15,4.44,10.44,9.33,13.64,2.42,1.59,5.16,1.31,7.88,1A13.59,13.59,0,0,0,539,248.2a25.05,25.05,0,0,1-4.95-7.1C526.51,242.29,519.32,240.63,512,239.37Zm26.49,1.23c1.14,1.42,2.12,2.59,3,3.81a13.88,13.88,0,0,0,5.42,4.08,5,5,0,0,0,3,.63c5.7-1.07,10.92-3.23,15-7.49,1.7-1.79,1.83-4.16,1.32-6.57-9.36,1.75-18.35,4-27.79,5.57Zm57.68-18.48a120.92,120.92,0,0,1-16.24,8.07,10.11,10.11,0,0,1,1.13,2.37,2.29,2.29,0,0,0,2.72,1.74l.1,0c4-.61,6.93-2.94,9.69-5.63a2.38,2.38,0,0,0,.5-.89c.6-1.7,1.24-3.38,2.05-5.6Zm-87.83,22.45c-.39-2.17-.74-4.12-1.14-6.28-4.46,0-8.75-1.18-13.11-2.34a8.88,8.88,0,0,0,6.66,8,21.55,21.55,0,0,0,7.54.65Zm92-20.58c2.76-.3,5-1.56,7.24-2.66a1,1,0,0,0,.43-.44,15.83,15.83,0,0,0,2.23-7.08l-9,5.32a5.59,5.59,0,0,0-.52.45,10.58,10.58,0,0,1-.42,4.44Z" transform="translate(-187.74 -48.54)"/><path class="cls-2" d="M283.92,225.8H289c3.82,0,7.64-.07,11.45,0s7.59.77,10.84,3.07a11.2,11.2,0,0,1,4.94,8.3c.76,7-1.94,12.89-8.63,16-.31.15-.61.33-1.16.64,6,7.22,12.18,14.15,18.47,21.63h-8.32c-.84,0-1.13-.76-1.55-1.26-4.7-5.56-9.41-11.11-14-16.73a4.11,4.11,0,0,0-3.84-1.81c-2.13.18-4.29.05-6.75.05v19.68a49.2,49.2,0,0,1-6.31.05C283.68,273.83,283.52,229.62,283.92,225.8Zm6.6,24.07a65,65,0,0,0,7.12,0,20.17,20.17,0,0,0,5.93-.86c4-1.42,6.2-5.42,5.64-10.43-.41-3.71-3.08-6.13-7.31-6.7-1.3-.18-2.62-.17-3.92-.27-2.46-.18-4.94-.05-7.46-.05Z" transform="translate(-187.74 -48.54)"/><path class="cls-2" d="M337.92,231.75v13.42h26a32.74,32.74,0,0,1,0,5.94H338v18.4h25.89a33.63,33.63,0,0,1,.09,5.85H331.28V225.91h32.58a28.5,28.5,0,0,1,0,5.84Z" transform="translate(-187.74 -48.54)"/><path class="cls-2" d="M234,226.05a28.47,28.47,0,0,1,0,5.69H208v13.41h26a30.42,30.42,0,0,1,.12,5.88h-26v18.4h25.79a27,27,0,0,1,.21,5.68c-1.51.45-30.3.55-32.74.12V226.15C202.81,225.71,231.64,225.61,234,226.05Z" transform="translate(-187.74 -48.54)"/><path class="cls-2" d="M251.17,231.74v13.9h21.28c.4,2,.11,3.88.22,6H251.15v23.73h-6.57V225.94h31.51a31.22,31.22,0,0,1,0,5.8Z" transform="translate(-187.74 -48.54)"/><path class="cls-2" d="M378.65,270.27V231c-2.17-.39-4.26,0-6.38-.3a32.28,32.28,0,0,1-.13-4.51c1.62-.45,17.55-.51,19.58-.1a21.82,21.82,0,0,1,0,4.57c-2,.41-4.05,0-6.16.3v39.44h6.09a33.43,33.43,0,0,1,.16,5H372.28a23.39,23.39,0,0,1-.1-4.66C374.31,270.13,376.47,270.78,378.65,270.27Z" transform="translate(-187.74 -48.54)"/><path class="cls-3" d="M354.58,397.37l1.49-1.92a3.06,3.06,0,0,1-1,2.43Z" transform="translate(-187.74 -48.54)"/><path class="cls-2" d="M322.06,422.88c.78.89,1.61,1.91,2.51,2.85,9.07,9.4,17.83,19.07,26.73,28.62,8.52,9.14,17,18.35,25.47,27.53,3.4,3.67,6.77,7.36,10.21,11a3.87,3.87,0,0,1,1.13,3c-.07,8.61.12,17.23-.18,25.83-.34,9.65-.06,19.3-.35,29,0,.54-.07,1.08-.11,1.58-2.56.55-190.53.33-193.67-.26,0-18.8.59-37.66.36-56.82,37-.44,73.85.23,110.59.2.45-.77-.1-1.06-.39-1.37q-3-3.35-6-6.62-12-13-24.1-26-13-14-25.9-28c-3.06-3.31-6.09-6.65-9.18-10a6.68,6.68,0,0,1,1.5-2.25c3.24-3.52,6.56-7,9.74-10.57,4.32-4.9,8.89-9.55,13.18-14.47,3.84-4.4,7.9-8.58,11.79-12.92,8-8.88,16-17.73,24.15-26.46,2-2.17,3.91-4.48,6.11-7-18.82-.37-37.32.15-55.81.17s-37.08,0-55.93,0c-.29-19.59.07-39,.28-58.31.59-.59,1.25-.41,1.86-.41,10.21,0,20.43-.26,30.63.06,11.74.36,23.47,0,35.2.23s23.35-.18,35,.18c11.94.36,23.88,0,35.82.24,11.32.21,22.65-.12,34,.16,6.8.18,13.6.17,20.4.25a8.27,8.27,0,0,1,1,.11c.54.66.34,1.38.35,2.06.05,12.43,0,24.87.16,37.3.09,5.41.19,10.82.26,16.23a4.25,4.25,0,0,1-1.21,3.15c-7.5,8.57-15.41,16.76-23.12,25.15-11.36,12.37-22.62,24.85-34.13,37.09-2.48,2.63-4.89,5.32-7.32,8A2.53,2.53,0,0,0,322.06,422.88Z" transform="translate(-187.74 -48.54)"/><path class="cls-4" d="M629.79,68.93c4.52.29,8.89-.83,13.31-1.45a1.72,1.72,0,0,0,1.4,2l.22,0c2.82.48,5.58.63,8.12-1.06a1.93,1.93,0,0,0,1-2.55c-.5-.46-1.1-.21-1.61-.39a27.4,27.4,0,0,1,7.14-1,5.2,5.2,0,0,0,1.33,2.08,23.34,23.34,0,0,1,4.6,11.83c.52,4.06.42,8.15.72,12.22.4,5.38.61,10.76,1.31,16.12a86.79,86.79,0,0,0,2.52,12.38c2.36,8.34,5.68,16.35,8.63,24.48a56.9,56.9,0,0,1,3.12,14.75c.17,1.93.14,3.89.47,5.78a20.4,20.4,0,0,1-.47,8.41c-3,13-7.47,25.37-15,36.51-1.11,1.63-2.41,3.25-2.6,5.36h0a.47.47,0,0,0-.32.5,40.28,40.28,0,0,1-10.24,9.89,39.72,39.72,0,0,0-4.08,2.85,5.78,5.78,0,0,1-6.71.85c-3.95-1.83-8-3.34-11.84-5.51a38.13,38.13,0,0,0-5.79-2.2,4.68,4.68,0,0,0,1.77-1.41c3.34-3.12,6.09-6.81,9.48-9.88a102.53,102.53,0,0,0,7.92-8.49c1.37-1.53,3-2.86,4.06-4.67,1,.67,2.2,1.12,3.24.14a4.88,4.88,0,0,0,1.78-4.44,41.08,41.08,0,0,0-1.25-5.46,5.44,5.44,0,0,0-2.08-2.78,16.63,16.63,0,0,0-9.31-3.12,10.74,10.74,0,0,0-4.69.71c-1.91.82-2.63,1.91-2.07,3.23a3.1,3.1,0,0,0,4.15,1.2,1.13,1.13,0,0,0,.35-.21,2.14,2.14,0,0,1,1.75-.48,10.39,10.39,0,0,1,3.87.6l-.81.71c-1.94,1.56-3.85,3.18-5.85,4.67-4.17,3.11-8.71,5.67-13.12,8.42-5.3,3.3-10.71,6.43-15.81,10a107.7,107.7,0,0,1-9.57,5.89c-4.89,2.75-9.63,5.8-14.73,8.16A106.85,106.85,0,0,1,570.16,229a100.52,100.52,0,0,1-13.47,3.49c-5.48.86-10.79,2.64-16.31,3.26-4.12.46-8.18,1.58-12.38,1.33a89.41,89.41,0,0,1-13.23-1.74,103.43,103.43,0,0,0-10.66-1.76,25.24,25.24,0,0,1-11.93-3.89,51.29,51.29,0,0,0-5.19-2.6c-1.3-.67-2.56-1.39-3.84-2.09a17.93,17.93,0,0,1-6-6,28.64,28.64,0,0,1-4.51-12q-1.23-7.71-1.81-15.49c-.2-2.63-.58-5.24-.79-7.87-.43-5.33-.06-10.69-.42-16-.31-4.78-.59-9.56-.51-14.35a27.61,27.61,0,0,1,.83-7.84,1.7,1.7,0,0,0-.27-1.55,58.87,58.87,0,0,1-3.78-8.23c1.61-1.75,1.9-1.79,3.75-.84a5.92,5.92,0,0,1,2.62,2.86,34.37,34.37,0,0,0,2,3.16c.37.6.82,1,1.54.63a1.21,1.21,0,0,0,.55-1.6,6.41,6.41,0,0,0-.45-1.17,60.1,60.1,0,0,1-3.32-8.73,14.63,14.63,0,0,0-1.34-3c-1.24-2.25-3.43-2.26-4.67,0-.55,1-.94,2-1.45,3-.25.47-.32,1.08-1,1.41a3,3,0,0,1-.64-3c.6-2.77,1-5.61,2.42-8.14a56.53,56.53,0,0,1,3.05-5c1.07-1.53,2-1.64,3.78-.89a13.4,13.4,0,0,1,6.75,5.91c2.47,4.34,5.21,8.53,6.87,13.28a2.59,2.59,0,0,0,3.79,1.65c.8-.52.81-1.42,1.2-2.13,1.25,0,1.51-1,1.84-1.88,1.45-4.13,1.83-8.58,3.73-12.58.8,0,1.6-.06,2.4-.11s1.75.22,2.5-.41a20,20,0,0,0,6.54-2.59,53.55,53.55,0,0,1,8.07-3.81c5.19-2.16,10.52-4,15.52-6.55a48.78,48.78,0,0,1,13.7-4.15,7.8,7.8,0,0,0,6-4.81,67.79,67.79,0,0,0,6-20.91c.46-3.91.94-7.86,2.46-11.57a15.41,15.41,0,0,1,9.44-9,28.89,28.89,0,0,1,15.76-1.18A56.49,56.49,0,0,1,599,57.71a3.07,3.07,0,0,1,1.24.71c-.29.66-1.33,1.23-.72,2,1.17,1.44,2.06,3.17,3.81,4.06,1.36.69,2.71,1.42,4.11,2a11.71,11.71,0,0,0,6.25,1,25.52,25.52,0,0,1,3.23-.72c.51,0,.7-.37.75-.82a70.22,70.22,0,0,0,11.3,3c-1.48.41-2.82,1.32-4.45,1.22-.7,0-1.44,0-1.73.81a1.92,1.92,0,0,0,.61,2.24c.26.22.52.45.8.65,2.58,1.85,5.57,1.51,8.4,1.2a2.15,2.15,0,0,0,1.12-3.69A9,9,0,0,0,629.79,68.93Zm-70.26,43.63a10,10,0,0,0-4.51,1.73,90.47,90.47,0,0,0-13,12.47c-1,1.21-2,2.52-2.88,3.82a7.32,7.32,0,0,0-1.35,4.08,2.19,2.19,0,0,0,3.7,1.65c1.36-1.65,3-3.08,4.3-4.77,2.87-3.63,5.61-7.43,9.53-10.09,1.71-1.15,3.23-2.63,5.38-3a1.75,1.75,0,0,1,1.89.45,18.49,18.49,0,0,1,2.92,4,41.44,41.44,0,0,1,3.46,10,2.07,2.07,0,0,0,2.24,1.89,1.35,1.35,0,0,0,.29,0,2.35,2.35,0,0,0,1.82-2.64,6,6,0,0,0-.17-.82,41.92,41.92,0,0,0-2-6.35,25.11,25.11,0,0,0-6-9.62A12.39,12.39,0,0,0,559.53,112.56ZM612.38,92V90.57a4,4,0,0,0-3.47-4.06,6.43,6.43,0,0,0-5.78,1.73c-5.38,4.94-6.7,12.13-2.13,18.55a3.79,3.79,0,0,0,3.57,1.71,9,9,0,0,0,7-4.26c1.18-1.77.68-2.63-1.4-2.82a1.93,1.93,0,0,1-2.08-1.76,1.75,1.75,0,0,1,0-.51c0-1.38.5-1.89,2-1.85a1.6,1.6,0,0,0,1.8-1.55A18.57,18.57,0,0,0,612.38,92Zm-40.09,3.74a18.25,18.25,0,0,0,.58,5.1c.55,2.24,1.81,4.11,4.26,4.65,3.14.69,7.67-3.14,7.71-6.39,0-.89-.27-1.53-1.25-1.55a2.07,2.07,0,0,1-1.62-.8,3.36,3.36,0,0,1-.68-3.49,2.27,2.27,0,0,1,2.51-1.41,1.46,1.46,0,0,0,1.66-1.23,7.8,7.8,0,0,0,.38-3.68c-.37-1.79-1-3.38-3-3.89a5,5,0,0,0-5.28,1.55c-.52.56-1,1.14-1.54,1.69a13.26,13.26,0,0,0-3.73,9.45Zm-16.6,42.08c-.28-2.32-.23-2.68.73-3.64.4-.4.86-.76.61-1.4a1.67,1.67,0,0,0-1.59-1.15,3.07,3.07,0,0,0-2.75,1.2,30.22,30.22,0,0,0-5.2,12.13,5,5,0,0,0,.19,2.66,2,2,0,0,0,1.56,1.25c.63.12,1-.3,1.3-.83,1.57-2.88,4-4.89,6.56-6.86,1-.81,2.07-1.63,3.07-2.49a1.17,1.17,0,0,0,.32-1.61l0-.06a1.06,1.06,0,0,0-1.47-.32,1,1,0,0,0-.17.12,7.44,7.44,0,0,1-3.11,1Zm43-69.36h.62a1.82,1.82,0,0,0,2.1-1.31,2.07,2.07,0,0,0-.88-2.37,12.35,12.35,0,0,0-4.48-2.09,3.4,3.4,0,0,0-3.22,1.85c-.32.86.12,1.77,1.36,2.52a8.07,8.07,0,0,0,4.48,1.4Z" transform="translate(-187.74 -48.54)"/><path class="cls-2" d="M409.33,554.62c-1.1.53-1.63,1.91-2.92,2.09a1.92,1.92,0,0,1-.26-.17s-.1-.11-.1-.16c-.26-26.74,0-53.48-.11-80.22a20.45,20.45,0,0,1,.07-2.07c0-.13.14-.24.22-.39,1.47-.31,2.88.26,4.29.5a80.76,80.76,0,0,0,19.71.44c3.39-.27,6.78-.49,10.15-1,8.92-1.23,17.87-2.41,26.43-5.4a76.64,76.64,0,0,0,8.63-4.12,4.44,4.44,0,0,0,2-2.33c.74-1.57.15-3.26-1.32-3.53-3.5-.65-6.44-2.52-9.38-4.31-3.15-1.92-6.39-3.64-9.71-5.24a101.68,101.68,0,0,1-12.3-7c-7.3-4.82-14.64-9.58-22-14.36a66.63,66.63,0,0,1-7.12-5.76,83.06,83.06,0,0,1-8.48-8.3,4.85,4.85,0,0,1-1.27-3.37c0-16.46-.08-32.92-.09-49.38V207.79c0-.94-.29-1.95.32-2.83,1.09,1.26,2.16,2.54,3.27,3.78q23.13,25.83,46.28,51.65,22.35,25,44.67,49.85Q527,340,553.66,369.81c4.72,5.27,9.41,10.57,14.12,15.86-3.64,4.38-7.74,8.33-11.59,12.5-4.33,4.69-8.71,9.32-13.1,13.95q-7,7.39-14,14.83-6.12,6.54-12.24,13c-4.82,5.09-9.61,10.19-14.42,15.28-4.38,4.64-8.73,9.3-13.11,13.94q-7,7.4-14,14.83-6.33,6.75-12.67,13.49l-14,14.83c-4.37,4.64-8.73,9.3-13.11,13.93-4.66,5-9.36,9.86-14,14.84-3.53,3.82-7.18,7.53-10.77,11.29A4.45,4.45,0,0,0,409.33,554.62Z" transform="translate(-187.74 -48.54)"/><path class="cls-5" d="M409.33,554.62a4.54,4.54,0,0,1,1.5-2.2c3.59-3.76,7.24-7.47,10.77-11.29,4.62-5,9.32-9.89,14-14.84,4.38-4.63,8.74-9.29,13.11-13.93l14-14.83q6.36-6.73,12.67-13.49,7-7.44,14-14.83c4.38-4.64,8.73-9.3,13.11-13.94,4.81-5.09,9.6-10.19,14.42-15.28q6.15-6.5,12.24-13l14-14.83c4.39-4.63,8.77-9.26,13.1-14,3.85-4.17,8-8.12,11.59-12.5l22.86-1c9.83-.4,19.67-.76,29.51-1.16,5-.21,10.1-.51,15.16-.71,5.74-.24,11.5-.39,17.25-.62,9.27-.38,18.55-.83,27.83-1.16a35.94,35.94,0,0,1,6.22-.18l.59.46c-.42.76-1.24,1-1.89,1.43q-11.7,7.38-23.45,14.68l-25.47,15.82-28.76,17.94c-7,4.4-14.08,8.85-21.14,13.25-7.65,4.76-15.33,9.48-23,14.24-5.88,3.66-11.74,7.36-17.62,11l-31.71,19.86L489,505.38q-15.69,9.81-31.41,19.57l-22.75,14.2q-11.82,7.38-23.62,14.78A3.11,3.11,0,0,1,409.33,554.62Z" transform="translate(-187.74 -48.54)"/><path class="cls-6" d="M686.61,380.86a35.94,35.94,0,0,0-6.22.18c-9.28.33-18.56.78-27.83,1.16-5.75.23-11.51.38-17.25.62-5.06.2-10.11.5-15.16.71-9.84.4-19.68.76-29.51,1.16q-11.43.46-22.86,1c-4.71-5.29-9.4-10.59-14.12-15.86Q527,340,500.31,310.24,478,285.37,455.69,260.46q-23.15-25.8-46.28-51.65c-1.11-1.24-2.18-2.52-3.27-3.78.33-.55.71-.26,1.05-.06l4.07,2.54L486,254.2a50.43,50.43,0,0,1,5.11,3.28c0,4.72,1.34,8.9,5.06,11.86a2.48,2.48,0,0,1-.25,1.77c-1.44,5.24-.29,9.77,3.8,13.4a2.55,2.55,0,0,1,.83,2.55,12.11,12.11,0,0,0,4.11,10.84,10.55,10.55,0,0,0,7.87,2.7h1.24l.33.11c1.7,4.05,4.51,7.05,9.14,7.78s8-1.4,10.85-4.8c4.9,5.13,10.94,5.87,16.7-.08a11.4,11.4,0,0,0,6.3,1.5,10.43,10.43,0,0,0,5.91-2.74l125,78.14C687.53,381,687,380.7,686.61,380.86Z" transform="translate(-187.74 -48.54)"/><path class="cls-4" d="M679.6,217.62a152.86,152.86,0,0,1,3.13,24.75c.4,6.86.6,13.73.82,20.6a5.93,5.93,0,0,1-.06,2.06c-.5.43-1.07.2-1.59.15a7.44,7.44,0,0,0-6.52,2.57,47.93,47.93,0,0,0-7.78,11.5c-1.7,3.61-3.43,7.3-6.43,10.13-2.38,2.25-5.24,3.86-7.71,6.12a21.33,21.33,0,0,1-2.48-4.73c-1.24-2.95-2.77-5.74-4.22-8.59a3.51,3.51,0,0,1-.36-2.56c.45-1.89.69-3.82,1.08-5.72a5.06,5.06,0,0,0-.26-3.07,2.34,2.34,0,0,0-4-.69,6,6,0,0,0-1.07,2c-1.23,3.32-1.15,6.82-1.36,10.28a3.88,3.88,0,0,0,1,2.68c2.59,3.08,3.83,6.89,5.71,10.35l2,3.66a1.68,1.68,0,0,1-.21.58c-4.13,4.39-7.07,9.6-10.15,14.71-.64,1.07-1.32,2.13-1.87,3.24a2.21,2.21,0,0,0,.4,2.85c1.13,1,2.61.7,3.48-.75,1.35-2.26,2.76-4.49,4-6.79a54,54,0,0,1,16.48-18.22,21.52,21.52,0,0,0,7-7.89c1.55-3,3.11-5.88,4.63-8.84a31.07,31.07,0,0,1,5.49-7.3c1.8-1.84,3.51-1.65,5.14.3a13,13,0,0,1,3.17,6.65c.55,3.85,1.27,7.67,2,11.49a30.7,30.7,0,0,0,3.15,9.19,10.16,10.16,0,0,1,.67,9.22c-.68,1.66-1.24,3.38-1.84,5.08a26.09,26.09,0,0,1-4.29,7.33,4.53,4.53,0,0,1-2.11,1.6,28,28,0,0,0-1-7.05c-.83-3.57-2-6.92-4.82-9.49a8.27,8.27,0,0,1-2.8-5.21,2.29,2.29,0,0,0-.18-.6,15.67,15.67,0,0,1,.45-11.37,5.76,5.76,0,0,0,.39-1,2.16,2.16,0,0,0-3.54-2,3.7,3.7,0,0,0-1,1.32c-1.79,4.9-2.27,9.8-.32,14.81,1.19,3.06,2.22,6.15,5,8.2-1.65,3.83-3,7.6-4.82,11.05-2.67,4.94-5.43,9.84-8.53,14.54-1.88,2.83-3.8,5.64-5.46,8.61a17.65,17.65,0,0,1-3.7,4.2,2.31,2.31,0,0,1-2.69.41c-1.1-.43-2.19-.88-3.28-1.33a4.77,4.77,0,0,1-1.74-1.1c-3.32-3.68-6.37-7.5-8.06-12.27a62,62,0,0,1-1.92-6.58,5.52,5.52,0,0,0-1.2-2.62c-2.55-2.67-3.78-6.12-5.52-9.27-3.31-6-5.12-12.58-7.46-18.95a44.1,44.1,0,0,1-3-15.23,15.83,15.83,0,0,0-.23-2.06,1.79,1.79,0,0,0-1.78-1.71,2.06,2.06,0,0,0-2.28,1.41,7.79,7.79,0,0,0-.44,3.28,53.38,53.38,0,0,0,2.14,11c1.37,4.73,3.12,9.34,4.71,14A74,74,0,0,0,626.61,318c1.62,3,2.86,6.18,5.24,8.72a2.85,2.85,0,0,1,.53,1.33,45.81,45.81,0,0,0,5.19,13.36.89.89,0,0,1,.06.39c-1.31-.34-50.78-31.4-52.43-32.94,1.1-1.15,2.24-2.26,3.29-3.46A66.39,66.39,0,0,0,596.17,295a16.19,16.19,0,0,1,1.28-1.9c6.11-7.51,11.16-15.76,16.37-23.86a163.8,163.8,0,0,0,17.56-35.58c.48-1.43.79-2.93,1.22-4.52,4.57,1.47,8.67,4.11,13.45,4.76.46.7.71.45.88-.19l1.65-.12a1.07,1.07,0,0,0,.9.41,20.53,20.53,0,0,0,6.75-.8c5.24-1.45,9.56-4.57,13.89-7.66a26.34,26.34,0,0,0,2.29-1.77c2-1.73,3.93-3.48,5.75-5.38A2.54,2.54,0,0,1,679.6,217.62Z" transform="translate(-187.74 -48.54)"/><path class="cls-4" d="M462.62,463.62a169.77,169.77,0,0,1-30.53,5.13,101.49,101.49,0,0,1-15,.42,67.63,67.63,0,0,1-12.32-1.92,134.39,134.39,0,0,1-22.26-7.45,31.24,31.24,0,0,1-4.72-2.64,68.73,68.73,0,0,1-16.37-15,21.77,21.77,0,0,1-3.78-9.61,55.55,55.55,0,0,1,.78-24.37,44.41,44.41,0,0,1,15.84-24.55c3.62-2.8,7.06-5.85,11.13-8,2.21-1.17,4.35-2.45,6.55-3.64a12.11,12.11,0,0,1,6.67-1.21c.1.21.26.38.26.56q0,11.37-.08,22.7c-3.33.06-5.62,1.93-7.19,4.58-1.8,3-1.87,6.49-1.34,9.89a17.18,17.18,0,0,0,5.18,9.49c3.76,3.78,7.65,7.44,11.73,10.87a114.66,114.66,0,0,0,10.57,8.35c3.29,2.16,6.57,4.34,9.92,6.42,4.16,2.59,8.08,5.56,12.32,8.06,3,1.76,6,3.55,9,5.14a100.42,100.42,0,0,0,12.62,5.89C462.11,462.91,462.61,463,462.62,463.62Z" transform="translate(-187.74 -48.54)"/><path class="cls-4" d="M648.15,429.08a62.24,62.24,0,0,1,4.3,14.49,33.4,33.4,0,0,1,.43,8.7,5.36,5.36,0,0,1-1,2.7,102.75,102.75,0,0,1-8,10.08c-3.15,3.64-6.82,6.7-10.3,10a8.86,8.86,0,0,1-3.73,2.12,51.6,51.6,0,0,0-8.84,4.15,29.9,29.9,0,0,1-3.39,1.59c-5.69,2.21-11.24,4.75-16.72,7.46-1.92,1-3.86,1.89-5.85,2.72a44.38,44.38,0,0,0-12.33,8q-3.36,3-6.65,6a10,10,0,0,0-2.56,3.25,2.21,2.21,0,0,0,.77,3l.06,0c1.08.62,2.19.32,3-1a16.19,16.19,0,0,1,5.41-5c-1.08,1.66-2.14,3.33-3.24,5a18.37,18.37,0,0,0-2.83,6c-.33,1.36-.39,2.61.88,3.57.57.44.71,1.14,1.16,1.93-4.93,2.07-8.57,5.72-12.25,9.25-.66-.39-.71-1-.93-1.45a7.53,7.53,0,0,0-7.65-4.68c-5.61.15-10.63,1.86-14.66,6-1.8,1.83-3.9,3.4-4.76,6a21.52,21.52,0,0,0-1,8.8A22.69,22.69,0,0,0,539.5,555c.11.25.29.49,0,.86-.83-.12-1-.89-1.39-1.51a16,16,0,0,0-1.78-3.27,2.26,2.26,0,0,0-2.58-.73,33.48,33.48,0,0,0-8,3.43c-.42-1.23.18-2.08.57-2.93a111.53,111.53,0,0,1,8.6-15.2c2.25-3.36,3.82-7.08,5.86-10.55.88-1.48.34-3-1.22-4.13a7.44,7.44,0,0,1-3.29-3.54,18.58,18.58,0,0,1,3.41-4.79,75.51,75.51,0,0,1,10.44-9.86,157.79,157.79,0,0,0,23-22.86c2.19-2.61,4.3-5.27,6.27-8.05,1.56-2.2,3.78-3.64,6-5.13a3.56,3.56,0,0,1,2.41-.38c2.84.21,5.67.4,8.51.64a25.47,25.47,0,0,0,8.25-.76,3.82,3.82,0,0,0,1.69-.79,2.11,2.11,0,0,0,.59-2.46,1.92,1.92,0,0,0-1.92-1.33,1.88,1.88,0,0,0-.62.05c-4.37,1.49-8.79.74-13.21.39a3.82,3.82,0,0,1,.65-.49c6.16-2.87,12-6.4,18-9.46,5.38-2.72,10.47-5.95,15.61-9.07,2.24-1.36,4.26-3.09,6.5-4.44,4-2.4,8.09-4.52,11.9-7.17A11.31,11.31,0,0,1,648.15,429.08Z" transform="translate(-187.74 -48.54)"/><path class="cls-4" d="M702.78,401.56c3.07,3.1,6.43,6,8.5,9.9a18,18,0,0,1,2,11.25,131.6,131.6,0,0,1-4.65,20,112.41,112.41,0,0,1-9.32,21.76c-1.54,2.81-3.43,5.37-5.23,8a2.49,2.49,0,0,1-2,1.11c-6.68.69-13.38,1.23-19.94,2.84a60.17,60.17,0,0,0-16.73,6.69,39.15,39.15,0,0,1-6.31,3.16,13.32,13.32,0,0,0-5.3,4.25A5.52,5.52,0,0,0,643,492c-.63,1.58-.42,2.43,1.05,3.34a2.2,2.2,0,0,1,1.13,1.61c.11.61.33,1.2.48,1.8a19.59,19.59,0,0,0,5.93,9.83c1.52,1.41,2.65,3.18,4.2,4.61a47.25,47.25,0,0,0,8.89,6.08,7.77,7.77,0,0,0,1.19.44,4.21,4.21,0,0,1-1.52,2.16,22.15,22.15,0,0,0-5.69,7.85,97.68,97.68,0,0,0-5.05,12.75c-.53,1.85-1.45,3.59-1.7,5.54-.16,1.24-1.1,1.71-2.17,1.9a4.44,4.44,0,0,1-1.45-.09c-3.26-.62-6-2.37-9-4a3.41,3.41,0,0,0-1-4.52c-3.45-3-4.93-7.14-6.69-11.13a29,29,0,0,0-1.92-3.92,5.74,5.74,0,0,0-5.67-2.77,21.67,21.67,0,0,0-7.83,1.93c-.61.3-1.29,1-2.13.37a26.07,26.07,0,0,0,5-7.91c.19-.08.47-.11.55-.25a89.16,89.16,0,0,0,5.33-9.13,44.62,44.62,0,0,0,3.54-11.1,2.5,2.5,0,0,1,1.06-1.66,107.85,107.85,0,0,0,8.59-7.53c1.36-1.36,2.94-2.5,4.42-3.75,2-1.64,4-3.25,5.87-5a64.24,64.24,0,0,0,9.75-11.57c1.6-2.29,2.54-5,4.13-7.21a20.71,20.71,0,0,0,3.38-7.93,4.05,4.05,0,0,1,.93-2.27,41.16,41.16,0,0,1,3.28-3.19,14.82,14.82,0,0,0,2.63-2.62,75.4,75.4,0,0,1,5-5.86,56.76,56.76,0,0,0,8.11-10.23c2.14-3.56,4.45-7,5.3-11.2a20.82,20.82,0,0,1,1.3-4.58,31.18,31.18,0,0,0,2.64-8.27,1.44,1.44,0,0,1,.94-1.24A18.83,18.83,0,0,1,702.78,401.56Z" transform="translate(-187.74 -48.54)"/><path class="cls-7" d="M664,214.37c.19-2.11,1.49-3.73,2.6-5.36,7.53-11.14,12-23.52,15-36.51a20.4,20.4,0,0,0,.47-8.41c-.33-1.89-.3-3.85-.47-5.78a56.9,56.9,0,0,0-3.12-14.75c-3-8.13-6.27-16.14-8.63-24.48a86.79,86.79,0,0,1-2.52-12.38c-.7-5.36-.91-10.74-1.31-16.12-.3-4.07-.2-8.16-.72-12.22a23.34,23.34,0,0,0-4.6-11.83,5.2,5.2,0,0,1-1.33-2.08c1.8-1,3.83-.64,5.72-.82a30.35,30.35,0,0,1,10.95.64,5.24,5.24,0,0,1,4.21,4.32,18.61,18.61,0,0,1,.49,4.33c-.19,3.66-.09,7.33-.05,11a9.64,9.64,0,0,1-.41,3.07,85.48,85.48,0,0,1-2.76,8.28c-2.65,6-2.61,12.13-1.72,18.51.72,5.17,3,9.61,5.12,14.19,4.07,9,8.11,18,12.67,26.69a31,31,0,0,1,3.19,9.19c.41,2.48.44,4.87-.79,7.08-2,3.51-3.39,7.29-5.58,10.69a110.81,110.81,0,0,1-6.93,9.6c-3.22,4-6.08,8.27-9.38,12.19S667.92,211.24,664,214.37Z" transform="translate(-187.74 -48.54)"/><path class="cls-7" d="M619,517.92a26.07,26.07,0,0,1-5,7.91c.43-3,.77-6,1.29-9,.44-2.54.35-5.11.67-7.66.68-5.56.94-11.16,1.69-16.72a26.12,26.12,0,0,0,.09-3.54,1.69,1.69,0,0,1,1.16-1.77c2.82-1,5.35-2.63,8.06-3.89a26.12,26.12,0,0,1,5.38-2.17,7,7,0,0,0,3.38-2c1.74-1.71,3.67-3.2,5.39-4.9,5.49-5.41,10.78-11,14.93-17.57a7.09,7.09,0,0,0,1.27-4.08c0-1.18.08-2.38,0-3.54a4.17,4.17,0,0,1,1.34-3.55,64.23,64.23,0,0,0,8.3-10.91c2.12-3.33,4.4-6.58,6.58-9.87a62.4,62.4,0,0,0,6.63-12.24c.25-.64.53-1.28.84-1.9a148.42,148.42,0,0,0,9.35-22,12.55,12.55,0,0,1,.6-1.15c3.2,3.85,6,7.83,9.33,11.31a5.31,5.31,0,0,0-3.18.75c-1.63.93-3.28,1.8-5,2.66a1.86,1.86,0,0,0-1.08,1.59c-.26,1.85-.64,3.67-1,5.49a89.86,89.86,0,0,1-3.5,11.73,38.85,38.85,0,0,1-6,10.47,79.15,79.15,0,0,1-5.6,6.4c-3.78,4-7.19,8.26-11.12,12.07-.44.43-1,.81-1.11,1.48a43,43,0,0,0-.83,4.89,7.75,7.75,0,0,1-1.78,4.35c-3.09,4-6.21,7.95-9.5,11.79A86.38,86.38,0,0,1,639,483.23c-1.92,1.56-4.1,2.8-6.18,4.17-2.91,1.91-5.3,4.17-6.09,7.79-.49,2.3-1.32,4.51-1.9,6.79a61.14,61.14,0,0,1-5.1,14A3.58,3.58,0,0,0,619,517.92Z" transform="translate(-187.74 -48.54)"/><path class="cls-4" d="M712.16,319.92c.05.26.09.51.14.77-.62.58-.36,1.28-.19,1.92.43,1.66,1,3.29,1.36,5,.61,2.79,2.14,5.34,2.06,8.3a21.75,21.75,0,0,1-6.21,8.67,93.22,93.22,0,0,0-6.78,6.71,27.08,27.08,0,0,1-3.18,2.67,3.67,3.67,0,0,1-3,.84c.24-3-.24-6,.07-9a1.78,1.78,0,0,0,1.5-1.24,10.19,10.19,0,0,1,2.17-3c3-2.75,4.59-6.49,6.85-9.76a13.19,13.19,0,0,0,1.48-3.4c.24-.73.54-1.7-.8-1.86a44.93,44.93,0,0,0,2.13-17.23,3.51,3.51,0,0,1,.69-2.27c.82-1.25,1.54-2.61,2.25-3.94a17.21,17.21,0,0,1,6.27-6.24c1.62-1,3.08-.8,4.73.42a16.29,16.29,0,0,1,5.73,8.91,57.9,57.9,0,0,1,2,10.17,29.67,29.67,0,0,1-.81,9.71,42.05,42.05,0,0,1-4.91,11.64,1.27,1.27,0,0,1-1,.84c-.51-1.58-1.09-3.17-1.54-4.79a57.28,57.28,0,0,0-4.19-10.2c-.69-1.36-1.41-2.71-2-4.09a5.37,5.37,0,0,1-.71-3.19,2.15,2.15,0,0,0-1.26-2.4,2.7,2.7,0,0,0-2.91.44,2.21,2.21,0,0,0-.58,2.64,18.27,18.27,0,0,1,.46,2.41A.44.44,0,0,0,712.16,319.92Z" transform="translate(-187.74 -48.54)"/><path class="cls-7" d="M589,462a75,75,0,0,1-9.65-1.38c-1.41-.23-2.82-.51-4.28-.78,1.18-1.45,66.19-42.64,68.28-43.25L647.65,427a3.57,3.57,0,0,0-2.27.86q-8.79,5.31-17.61,10.55-9.09,5.4-18.23,10.71l-10.92,6.38c-3.1,1.82-6.19,3.67-9.29,5.47C588.86,461.26,588.67,461.48,589,462Z" transform="translate(-187.74 -48.54)"/><path class="cls-4" d="M691.85,352a50.43,50.43,0,0,1-.44,9.75,107.82,107.82,0,0,1-1.58,11.74,1.53,1.53,0,0,1-.39.93c-1.4-.32-32.13-19.55-34.11-21.37a21.29,21.29,0,0,0,4-3.2,7,7,0,0,0,4-.86c1.79-.77,3.25-2.1,5-2.94a26.06,26.06,0,0,0,6.22-4.45c3.39-3.07,7.56-4.43,11.94-5.93a51.36,51.36,0,0,1,1.2,6,24.29,24.29,0,0,0,3.33,9.74A1,1,0,0,0,691.85,352Z" transform="translate(-187.74 -48.54)"/><path class="cls-7" d="M684.91,390.37a20.25,20.25,0,0,1-1.57,4.27,92.93,92.93,0,0,1-5.06,11.41c-2.19,4.09-3.76,8.48-6.16,12.49-2.29,3.81-5,7.34-7.29,11.13-1.44,2.37-3.06,4.63-4.57,6.95a28.43,28.43,0,0,1-3.92,4.63c-1.6-9.79-5.84-18.45-9.25-27.41a46.58,46.58,0,0,1,6.18-4.14c8.65-5.54,17.34-11,26-16.51,1.17-.74,2.34-1.49,3.52-2.22a3.41,3.41,0,0,1,1.89-.78Z" transform="translate(-187.74 -48.54)"/><path class="cls-8" d="M462.62,463.62c0-.63-.51-.71-1-.88A100.42,100.42,0,0,1,449,456.85c-3.07-1.59-6-3.38-9-5.14-4.24-2.5-8.16-5.47-12.32-8.06-3.35-2.08-6.63-4.26-9.92-6.42a114.66,114.66,0,0,1-10.57-8.35c-4.08-3.43-8-7.09-11.73-10.87a17.18,17.18,0,0,1-5.18-9.49c-.53-3.4-.46-6.85,1.34-9.89,1.57-2.65,3.86-4.52,7.19-4.58a23.2,23.2,0,0,1,0,4.41,2.1,2.1,0,0,1-1.15.76,3.61,3.61,0,0,0-2.13,3.51,11.65,11.65,0,0,0,1.11,4.61,31.66,31.66,0,0,0,6.19,9.54,88.6,88.6,0,0,0,15.59,14c10.34,7,20.46,14.31,31.34,20.48,3.62,2.06,7.49,3.62,11.13,5.64,2.36,1.3,4.62,2.79,7.1,4.3A17.22,17.22,0,0,1,462.62,463.62Z" transform="translate(-187.74 -48.54)"/><path class="cls-8" d="M619,517.92a3.57,3.57,0,0,1,.7-1.93,61.14,61.14,0,0,0,5.1-14c.58-2.28,1.41-4.49,1.9-6.79.79-3.62,3.18-5.88,6.09-7.79,2.08-1.37,4.26-2.61,6.18-4.17a85.83,85.83,0,0,0,11.68-10.87c3.29-3.84,6.41-7.8,9.5-11.79a7.75,7.75,0,0,0,1.78-4.35,43,43,0,0,1,.83-4.89c.12-.67.67-1,1.11-1.48,3.93-3.81,7.34-8.12,11.12-12.07a78.94,78.94,0,0,0,5.56-6.42,38.61,38.61,0,0,0,5.93-10.45,89.86,89.86,0,0,0,3.5-11.73c.4-1.82.78-3.64,1-5.49a1.86,1.86,0,0,1,1.08-1.59c1.67-.86,3.32-1.73,5-2.66a5.31,5.31,0,0,1,3.18-.75,21,21,0,0,1,2.52,2.9,18.84,18.84,0,0,0-7,1.7,1.44,1.44,0,0,0-.94,1.24,31.18,31.18,0,0,1-2.64,8.27,20.82,20.82,0,0,0-1.3,4.58c-.85,4.16-3.16,7.64-5.3,11.2a56.76,56.76,0,0,1-8.11,10.23,75.4,75.4,0,0,0-5,5.86,14.82,14.82,0,0,1-2.63,2.62,41.16,41.16,0,0,0-3.28,3.19,4.05,4.05,0,0,0-.93,2.27,20.71,20.71,0,0,1-3.38,7.93c-1.59,2.26-2.53,4.92-4.13,7.21a64.24,64.24,0,0,1-9.75,11.57c-1.91,1.7-3.91,3.31-5.87,5-1.48,1.25-3.06,2.39-4.42,3.75a107.85,107.85,0,0,1-8.59,7.53,2.54,2.54,0,0,0-1.06,1.66,44.66,44.66,0,0,1-3.59,11.22c-1.45,3.23-3.53,6.1-5.33,9.13C619.5,517.81,619.22,517.84,619,517.92Z" transform="translate(-187.74 -48.54)"/><path class="cls-7" d="M660.18,348.59a33.26,33.26,0,0,1,3.47-6.12c2.67-4.29,5.55-8.46,8-12.88,2.36-4.22,5-8.29,6.67-12.89.14-.41.19-1,.92-1.15.53,2.26,1.33,4.44.65,6.84a19.39,19.39,0,0,0-.3,3.72c-.21,2.46,1.73,3.74,3.74,2.36a33.82,33.82,0,0,0,7.58-6.74c.21-.26.33-.61.69-.76a.38.38,0,0,1,.33.42q-.06,12.18-.13,24.35a4.29,4.29,0,0,1-2.74-3.63c-.63-3.31-1.92-6.51-1.79-9.95,0-.19-.11-.4-.52-.48a12.61,12.61,0,0,0-2.82,1.41,4.76,4.76,0,0,1-3.12.91,3.44,3.44,0,0,0-2.89,1.28c-1.77,1.75-3.46,3.57-5.39,5.18-3.14,2.61-6.92,4.31-9.93,7.11A3.44,3.44,0,0,1,660.18,348.59Z" transform="translate(-187.74 -48.54)"/><path class="cls-7" d="M643.14,186.37l.81-.71c3.27.79,4,1.76,4.6,5.79a58,58,0,0,1-6.42,7.81c-6.36,6.28-12.35,12.91-18.68,19.21-.48.47-1.12.87-1.12,1.67-2.84-.68-5.75-.29-8.82-.36.51-2,.88-3.86,1.44-5.63.39-1.22.77-2.37-.19-3.55a69.67,69.67,0,0,1,6.38-4.08c3.81-2.41,7.63-4.8,11.47-7.12a78.54,78.54,0,0,0,9.26-6.29c1-.83,2-1.65,3-2.51a3.92,3.92,0,0,0,.88-1.14,1.92,1.92,0,0,0-.52-2.68,2.08,2.08,0,0,0-.88-.32A9.71,9.71,0,0,0,643.14,186.37Z" transform="translate(-187.74 -48.54)"/><path class="cls-4" d="M703.76,322.59a12.79,12.79,0,0,0-4.22-5.63,6.83,6.83,0,0,1-2.5-4.84,10.67,10.67,0,0,1,.41-4.79,12.5,12.5,0,0,0-1-10.07c-2.41-4.51-3.36-9.35-4.11-14.29a11.46,11.46,0,0,1-.36-3.6c1.73-1.41,3.94-1.85,6-2.72,1.06.57,1.19,1.65,1.47,2.63a164.78,164.78,0,0,1,5.48,24.3c.81,6,1.05,12-.46,18A1.28,1.28,0,0,1,703.76,322.59Z" transform="translate(-187.74 -48.54)"/><path class="cls-4" d="M734.66,328.5a77.57,77.57,0,0,0,1.26-8.85,32.32,32.32,0,0,0-.31-5.38c-.16-2.17.14-2.4,2.24-2.38s3.9.87,5.78,1.54a3.07,3.07,0,0,1,1.64,2.28,22.94,22.94,0,0,1,.57,10.7,56.05,56.05,0,0,1-6.25,17.34,40.9,40.9,0,0,1-2.7,4.9c-.92-2.68-1.73-5.06-2.55-7.44a9.3,9.3,0,0,0,0-3.93,8.11,8.11,0,0,1,.24-3.85A10.15,10.15,0,0,0,734.66,328.5Z" transform="translate(-187.74 -48.54)"/><path class="cls-3" d="M592.29,561.24a7.73,7.73,0,0,0-.6-3c-2.68-8.16-5.42-16.28-8.75-24.2a8.35,8.35,0,0,0-1.76-2.79c-.93-.92-1.76-1.94-2.63-2.92a24.6,24.6,0,0,1,4.88-2.67,1.73,1.73,0,0,1,2.24.42,4.53,4.53,0,0,1,.67.79,51,51,0,0,1,4.34,9.4c.14.46.25.94.43,1.39,2.21,5.32,3.7,10.88,5.58,16.32q1.32,3.82,2.58,7.67a1.66,1.66,0,0,1,0,1.56A19.39,19.39,0,0,1,592.29,561.24Z" transform="translate(-187.74 -48.54)"/><path class="cls-3" d="M563.13,563.75a33,33,0,0,0-2.35-12.52,40.3,40.3,0,0,1-1.26-4.58,18.22,18.22,0,0,0-2.6-5.6,36.3,36.3,0,0,1-2.47-4.06,7.1,7.1,0,0,0-1.41-1.77c-.83-.91-1.92-1.59-2.44-2.76,2.65-1.61,5.63-1.78,8.59-1.69,1.56,0,2.53,1.19,3.1,2.69a30.65,30.65,0,0,1,1.56,6.67c.61,4.12,1.75,8.13,2.49,12.22.66,3.7.46,7.42.67,11.2A15.75,15.75,0,0,1,563.13,563.75Z" transform="translate(-187.74 -48.54)"/><path class="cls-3" d="M671.5,520.55c-.31-1.2.63-1.84,1.14-2.73a11.67,11.67,0,0,1,3.71,1.36c1.73.87,3.38,1.92,5.15,2.71a7.55,7.55,0,0,1,3.37,3c3.93,6.19,8.36,12.08,11.39,18.82a30.31,30.31,0,0,1,1.86,5.46,25.22,25.22,0,0,1-6.19-1.67c-.58-4.37-2.69-8.13-5.06-11.69A49.49,49.49,0,0,0,672.49,522C672,521.65,671.39,521.37,671.5,520.55Z" transform="translate(-187.74 -48.54)"/><path class="cls-3" d="M611.43,557.82a43.23,43.23,0,0,0-2.56-13.36A37.21,37.21,0,0,0,603,534.27a16,16,0,0,0-4-3.9,12.49,12.49,0,0,1-3-2.85c2.6-3.3,3.83-3.45,6.93-.79a13.77,13.77,0,0,1,2.52,2.76,67.54,67.54,0,0,1,8.33,16.45,80.89,80.89,0,0,1,2.76,9.36,8.19,8.19,0,0,1,.13,3A14.17,14.17,0,0,1,611.43,557.82Z" transform="translate(-187.74 -48.54)"/><path class="cls-7" d="M648.91,233.1c3-2.07,6.07-4.12,9.08-6.21,3.28-2.29,5.72-5.44,8.47-8.28,0-.05.07-.12.12-.17l11-12.1a39.31,39.31,0,0,1,1.38,8.47c-2.36,2-4.64,4.12-7.07,6.06-4.58,3.67-9,7.47-14.33,10.15C654.86,232.42,652.1,233.63,648.91,233.1Z" transform="translate(-187.74 -48.54)"/><path class="cls-8" d="M589,462c-.29-.47-.1-.69.35-1,3.1-1.8,6.19-3.65,9.29-5.47l10.92-6.38q9.12-5.34,18.23-10.71,8.85-5.24,17.61-10.55a3.57,3.57,0,0,1,2.27-.86,6.1,6.1,0,0,1,.52,2,11.46,11.46,0,0,0-4.39,2.28c-3.81,2.65-7.93,4.77-11.9,7.17-2.24,1.35-4.26,3.08-6.5,4.44-5.14,3.12-10.23,6.35-15.61,9.07-6.07,3.06-11.88,6.59-18,9.46a3.82,3.82,0,0,0-.65.49Z" transform="translate(-187.74 -48.54)"/><path class="cls-3" d="M673.17,551.22c.16-3-1.42-5.46-2.06-8.2A36.1,36.1,0,0,0,665,529.49a18.5,18.5,0,0,1-1-1.59c.55-1.34,1.78-2.06,2.66-3.17a12.34,12.34,0,0,1,3.77,3.67,49.76,49.76,0,0,1,8.11,20.74,6.61,6.61,0,0,1,0,3A13.08,13.08,0,0,1,673.17,551.22Z" transform="translate(-187.74 -48.54)"/><path class="cls-3" d="M689.41,518.61c.62-2,2.23-2.86,4.06-3.56,2.31.81,3.55,2.76,4.62,4.78,2.12,4,4,8.17,6.17,12.21a51.72,51.72,0,0,0,5.57,9,1.08,1.08,0,0,1,.34.91c-1.6.21-3.19.9-4.92.51a67.24,67.24,0,0,0-13.71-20.36A8,8,0,0,1,689.41,518.61Z" transform="translate(-187.74 -48.54)"/><path class="cls-8" d="M660.18,348.59a3.47,3.47,0,0,0,2.44-1c3-2.8,6.79-4.5,9.93-7.11,1.93-1.61,3.62-3.43,5.39-5.18a3.44,3.44,0,0,1,2.89-1.28,4.76,4.76,0,0,0,3.12-.91,12.61,12.61,0,0,1,2.82-1.41c.41.08.53.29.52.48-.13,3.44,1.16,6.64,1.79,9.95a4.29,4.29,0,0,0,2.74,3.63,38.24,38.24,0,0,1,0,6.24,1.07,1.07,0,0,1-.81-.57,24.29,24.29,0,0,1-3.33-9.74,51.36,51.36,0,0,0-1.2-6c-4.38,1.5-8.55,2.86-11.94,5.93a26.06,26.06,0,0,1-6.22,4.45c-1.76.84-3.22,2.17-5,2.94a7,7,0,0,1-4,.86Z" transform="translate(-187.74 -48.54)"/><path class="cls-8" d="M622.33,220.16c0-.8.64-1.2,1.12-1.67,6.33-6.3,12.32-12.93,18.68-19.21a58,58,0,0,0,6.42-7.81,2.28,2.28,0,0,1-.25,2,2.68,2.68,0,0,0-.09,2.87c-1.05,1.81-2.69,3.14-4.06,4.67a102.53,102.53,0,0,1-7.92,8.49c-3.39,3.07-6.14,6.76-9.48,9.88a4.68,4.68,0,0,1-1.77,1.41A12.17,12.17,0,0,1,622.33,220.16Z" transform="translate(-187.74 -48.54)"/><path class="cls-7" d="M696.41,343.24a39.1,39.1,0,0,1-.18-9.3c.24-3.66.12-7.32.26-11a5.11,5.11,0,0,1,.2-2.16,3.12,3.12,0,0,1,2.23,1.88,17.14,17.14,0,0,1,2.33,5.73,5,5,0,0,0,1.54,3.07,4.33,4.33,0,0,1-.73,2.32C700.49,337.14,698,339.92,696.41,343.24Z" transform="translate(-187.74 -48.54)"/><path class="cls-7" d="M497,118.62c-1.9,4-2.28,8.45-3.73,12.58-.33.93-.59,1.87-1.84,1.88a44.54,44.54,0,0,0-2.66-9.73,51.07,51.07,0,0,1-2.24-5.21h5.76c.43.44,1,.34,1.51.36Z" transform="translate(-187.74 -48.54)"/><path class="cls-9" d="M617.71,65.93c-.05.45-.24.82-.75.82a25.52,25.52,0,0,0-3.23.72,11.71,11.71,0,0,1-6.25-1c-1.4-.61-2.75-1.34-4.11-2-1.75-.89-2.64-2.62-3.81-4.06-.61-.76.43-1.33.72-2C606.12,60.81,612,63.1,617.71,65.93Z" transform="translate(-187.74 -48.54)"/><path class="cls-8" d="M648.91,233.1c3.19.53,6-.68,8.7-2.08,5.28-2.68,9.75-6.48,14.33-10.15,2.43-1.94,4.71-4,7.07-6.06-.14,1,.65,1.82.59,2.81a2.49,2.49,0,0,0-1.44.75c-1.82,1.9-3.77,3.65-5.75,5.38a26.34,26.34,0,0,1-2.29,1.77c-4.33,3.09-8.65,6.21-13.89,7.66a20.53,20.53,0,0,1-6.75.8,1.07,1.07,0,0,1-.9-.41A.54.54,0,0,1,648.91,233.1Z" transform="translate(-187.74 -48.54)"/><path class="cls-9" d="M629.79,68.93a8.84,8.84,0,0,1,4,2.4,2.15,2.15,0,0,1,.1,3,2.06,2.06,0,0,1-1.22.65c-2.83.31-5.82.65-8.4-1.2-.28-.2-.54-.43-.8-.65a1.92,1.92,0,0,1-.61-2.24c.29-.8,1-.85,1.73-.81,1.63.1,3-.81,4.45-1.22Z" transform="translate(-187.74 -48.54)"/><path class="cls-8" d="M696.41,343.24c1.59-3.32,4.08-6.1,5.65-9.44a4.33,4.33,0,0,0,.73-2.32c2.31,0,2.5-.14,3.4-2.24a11.33,11.33,0,0,1,1.46-2.72c1.34.16,1,1.13.8,1.86a13.19,13.19,0,0,1-1.48,3.4c-2.26,3.27-3.83,7-6.85,9.76a10.19,10.19,0,0,0-2.17,3,1.76,1.76,0,0,1-1.5,1.24A3.58,3.58,0,0,1,696.41,343.24Z" transform="translate(-187.74 -48.54)"/><path class="cls-9" d="M652.19,65.47c.51.18,1.11-.07,1.61.39.49,1.12,0,1.9-1,2.55-2.54,1.69-5.3,1.54-8.12,1.06A1.7,1.7,0,0,1,643,67.7a1.79,1.79,0,0,1,0-.23Z" transform="translate(-187.74 -48.54)"/><path class="cls-7" d="M715.53,335.87c.08-3-1.45-5.51-2.06-8.3-.36-1.67-.93-3.3-1.36-5-.17-.64-.43-1.34.19-1.92.9.64,1.1,1.71,1.56,2.61a77.08,77.08,0,0,1,4,8.48C716.7,332.94,716.77,334.76,715.53,335.87Z" transform="translate(-187.74 -48.54)"/><path class="cls-7" d="M734.66,328.5a10.15,10.15,0,0,1-.07,4.93,8.11,8.11,0,0,0-.24,3.85,9.3,9.3,0,0,1,0,3.93,2.65,2.65,0,0,1-.92-1.35,5.25,5.25,0,0,0-2.51-2.54A62.72,62.72,0,0,0,734.66,328.5Z" transform="translate(-187.74 -48.54)"/><path class="cls-10" d="M497,118.62l-3.2-.12a1.86,1.86,0,0,1-1.51-.36h9.61c-.75.63-1.66.35-2.5.41S497.75,118.58,497,118.62Z" transform="translate(-187.74 -48.54)"/><path class="cls-8" d="M647,233.69c-.17.64-.42.89-.88.19A.79.79,0,0,1,647,233.69Z" transform="translate(-187.74 -48.54)"/><path class="cls-7" d="M684.69,390.19l.33-.47c.3.27.1.46-.11.65Z" transform="translate(-187.74 -48.54)"/><path class="cls-7" d="M712.16,319.92a.44.44,0,0,1-.18-.55.39.39,0,0,1,.2.52Z" transform="translate(-187.74 -48.54)"/><path class="cls-7" d="M663.64,214.86a.47.47,0,0,1,.32-.5A.46.46,0,0,1,663.64,214.86Z" transform="translate(-187.74 -48.54)"/><path class="cls-1" d="M559.53,112.56a12.4,12.4,0,0,1,5.66,2.72,25.11,25.11,0,0,1,6,9.62,41.92,41.92,0,0,1,1.95,6.35,6,6,0,0,1,.17.82,2.35,2.35,0,0,1-1.82,2.64,2.06,2.06,0,0,1-2.48-1.55,2.5,2.5,0,0,1,0-.29,41.44,41.44,0,0,0-3.46-10,18.49,18.49,0,0,0-2.92-4,1.75,1.75,0,0,0-1.89-.45c-2.15.39-3.67,1.87-5.38,3-3.92,2.66-6.66,6.46-9.53,10.09-1.34,1.69-2.94,3.12-4.3,4.77a2.19,2.19,0,0,1-3.7-1.65,7.32,7.32,0,0,1,1.35-4.08c.93-1.3,1.85-2.61,2.88-3.82a89.76,89.76,0,0,1,13-12.44A10,10,0,0,1,559.53,112.56Z" transform="translate(-187.74 -48.54)"/><path class="cls-1" d="M612.38,92a17.9,17.9,0,0,1-.42,3.72c-.2,1-.64,1.57-1.8,1.55-1.53,0-2,.47-2,1.85a1.94,1.94,0,0,0,1.56,2.25,1.67,1.67,0,0,0,.5,0c2.08.19,2.58,1,1.4,2.82a9,9,0,0,1-7,4.26,3.79,3.79,0,0,1-3.57-1.71c-4.57-6.42-3.25-13.61,2.13-18.55A6.43,6.43,0,0,1,609,86.51a4,4,0,0,1,3.47,4.06C612.4,91.05,612.38,91.54,612.38,92Z" transform="translate(-187.74 -48.54)"/><path class="cls-1" d="M572.29,95.77a13.28,13.28,0,0,1,3.77-9.45c.52-.55,1-1.13,1.54-1.69a5,5,0,0,1,5.28-1.55c2,.51,2.59,2.1,3,3.89a7.8,7.8,0,0,1-.38,3.68,1.46,1.46,0,0,1-1.66,1.23,2.27,2.27,0,0,0-2.51,1.41,3.36,3.36,0,0,0,.68,3.49,2.07,2.07,0,0,0,1.62.8c1,0,1.26.66,1.25,1.55,0,3.25-4.57,7.08-7.71,6.39-2.45-.54-3.71-2.41-4.26-4.65A18.66,18.66,0,0,1,572.29,95.77Z" transform="translate(-187.74 -48.54)"/><path class="cls-1" d="M648.21,196.29a2.68,2.68,0,0,1,.09-2.87,2.28,2.28,0,0,0,.25-2c-.56-4-1.33-5-4.6-5.79a10.39,10.39,0,0,0-3.87-.6,2.14,2.14,0,0,0-1.75.48,1.13,1.13,0,0,1-.35.21,3.1,3.1,0,0,1-4.15-1.2c-.56-1.32.16-2.41,2.07-3.23a10.74,10.74,0,0,1,4.69-.71,16.63,16.63,0,0,1,9.31,3.12,5.44,5.44,0,0,1,2.08,2.78,41.08,41.08,0,0,1,1.25,5.46,4.88,4.88,0,0,1-1.78,4.44C650.41,197.37,649.26,197,648.21,196.29Z" transform="translate(-187.74 -48.54)"/><path class="cls-1" d="M555.69,137.85a7.44,7.44,0,0,0,3.11-1,1.08,1.08,0,0,1,1.52,0l.12.16a1.16,1.16,0,0,1-.21,1.63l-.06,0c-1,.86-2,1.68-3.07,2.49-2.52,2-5,4-6.56,6.86-.28.53-.67,1-1.3.83a2,2,0,0,1-1.56-1.25,5,5,0,0,1-.19-2.66,30.22,30.22,0,0,1,5.2-12.13,3.07,3.07,0,0,1,2.75-1.2,1.67,1.67,0,0,1,1.59,1.15c.25.64-.21,1-.61,1.4C555.46,135.17,555.41,135.53,555.69,137.85Z" transform="translate(-187.74 -48.54)"/><path class="cls-9" d="M598.67,68.49a8.06,8.06,0,0,1-4.5-1.4c-1.24-.75-1.68-1.66-1.36-2.52A3.4,3.4,0,0,1,596,62.72a12.35,12.35,0,0,1,4.48,2.09,2.07,2.07,0,0,1,.88,2.37,1.82,1.82,0,0,1-2.1,1.31Z" transform="translate(-187.74 -48.54)"/></svg>